<svg width="70" height="68" viewBox="0 0 70 68" fill="none" xmlns="http://www.w3.org/2000/svg">
<path d="M63.5078 0H18.3976C17.8313 0 17.3722 0.458965 17.3722 1.02539C17.3722 1.59182 17.8313 2.05078 18.3976 2.05078H63.5078C65.9568 2.05078 67.9492 4.04318 67.9492 6.49209V61.0218C67.9492 63.4707 65.9568 65.4631 63.5078 65.4631H55.3446C54.7783 65.4631 54.3192 65.9221 54.3192 66.4885C54.3192 67.0549 54.7783 67.5139 55.3446 67.5139H63.5078C67.0876 67.5139 70 64.6015 70 61.0218V6.49209C70 2.91238 67.0876 0 63.5078 0Z" fill="white"/>
<path d="M50.5594 65.4631H6.49223C4.04318 65.4631 2.05078 63.4707 2.05078 61.0218V6.49209C2.05078 4.04318 4.04318 2.05078 6.49223 2.05078H13.4352C14.0015 2.05078 14.4606 1.59182 14.4606 1.02539C14.4606 0.458965 14.0015 0 13.4352 0H6.49223C2.91238 0 0 2.91238 0 6.49209V61.0218C0 64.6017 2.91238 67.5139 6.49223 67.5139H50.5594C51.1257 67.5139 51.5848 67.0549 51.5848 66.4885C51.5848 65.9221 51.1257 65.4631 50.5594 65.4631Z" fill="white"/>
<path d="M63.1641 30.4329V11.1856C63.1641 8.78719 61.2128 6.83594 58.8144 6.83594H38.3242C36.992 6.83594 35.7984 7.43846 35 8.38469C34.2014 7.43846 33.0079 6.83594 31.6758 6.83594H11.1855C8.78705 6.83607 6.83594 8.78719 6.83594 11.1856V30.4328C6.83594 31.765 7.43846 32.9585 8.38469 33.757C7.43846 34.5557 6.83594 35.7491 6.83594 37.0814V56.3285C6.83594 58.727 8.78705 60.6781 11.1855 60.6781H31.6757C33.0079 60.6781 34.2014 60.0756 34.9999 59.1294C35.7983 60.0756 36.9919 60.6781 38.324 60.6781H58.8142C61.2127 60.6781 63.1639 58.7269 63.1639 56.3285V37.0814C63.1639 35.7492 62.5614 34.5557 61.6152 33.7571C62.5615 32.9585 63.1641 31.7651 63.1641 30.4329ZM8.88672 30.4329V11.1856C8.88672 9.91812 9.91799 8.88672 11.1855 8.88672H31.6757C32.9433 8.88672 33.9746 9.91799 33.9746 11.1856V32.7317H11.1855C9.91799 32.7317 8.88672 31.7004 8.88672 30.4329ZM31.6757 58.6273H11.1855C9.91799 58.6273 8.88672 57.5961 8.88672 56.3285V37.0814C8.88672 35.8137 9.91799 34.7825 11.1855 34.7825H33.9746V56.3285C33.9746 57.5961 32.9433 58.6273 31.6757 58.6273ZM61.1133 37.0814V56.3285C61.1133 57.5961 60.082 58.6273 58.8144 58.6273H38.3242C37.0567 58.6273 36.0254 57.5961 36.0254 56.3285V34.7825H58.8144C60.082 34.7825 61.1133 35.8137 61.1133 37.0814ZM36.0254 32.7317V11.1856C36.0254 9.91812 37.0567 8.88672 38.3242 8.88672H58.8144C60.082 8.88672 61.1133 9.91799 61.1133 11.1856V30.4328C61.1133 31.7003 60.082 32.7316 58.8144 32.7316H36.0254V32.7317Z" fill="white"/>
<path d="M26.3595 16.7169H25.5229V15.8805C25.5229 13.6241 23.6872 11.7882 21.4308 11.7882C19.1744 11.7882 17.3387 13.6241 17.3387 15.8805V16.7169H16.5021C14.2457 16.7169 12.41 18.5528 12.41 20.8092C12.41 23.0656 14.2457 24.9013 16.5021 24.9013H17.3387V25.7379C17.3387 27.9943 19.1744 29.8302 21.4308 29.8302C23.6872 29.8302 25.5229 27.9943 25.5229 25.7379V24.9013H26.3595C28.6159 24.9013 30.4517 23.0656 30.4517 20.8092C30.4517 18.5528 28.6159 16.7169 26.3595 16.7169ZM26.3595 22.8505H24.4976C23.9313 22.8505 23.4722 23.3095 23.4722 23.8759V25.7379C23.4722 26.8635 22.5564 27.7794 21.4308 27.7794C20.3052 27.7794 19.3895 26.8636 19.3895 25.7379V23.8759C19.3895 23.3095 18.9304 22.8505 18.3641 22.8505H16.5021C15.3765 22.8505 14.4608 21.9348 14.4608 20.8092C14.4608 19.6836 15.3765 18.7677 16.5021 18.7677H18.3641C18.9304 18.7677 19.3895 18.3087 19.3895 17.7423V15.8805C19.3895 14.7549 20.3052 13.839 21.4308 13.839C22.5564 13.839 23.4722 14.7547 23.4722 15.8805V17.7423C23.4722 18.3087 23.9313 18.7677 24.4976 18.7677H26.3595C27.4851 18.7677 28.4009 19.6834 28.4009 20.8092C28.4009 21.9347 27.4851 22.8505 26.3595 22.8505Z" fill="white"/>
<path d="M27.8095 40.3259C26.2139 38.7304 23.6177 38.7304 22.0224 40.3259L21.4308 40.9175L20.8392 40.3259C19.2437 38.7304 16.6475 38.7307 15.052 40.3259C13.4565 41.9215 13.4565 44.5176 15.052 46.1132L15.6436 46.7047L15.052 47.2961C13.4565 48.8917 13.4565 51.4878 15.052 53.0834C16.6475 54.6789 19.2437 54.6786 20.8392 53.0834L21.4308 52.4918L22.0224 53.0834C22.8201 53.8812 23.8679 54.2801 24.916 54.28C25.9638 54.2798 27.0119 53.881 27.8097 53.0834C29.4052 51.4878 29.4052 48.8917 27.8097 47.2961L27.2181 46.7047L27.8097 46.1132C29.405 44.5176 29.405 41.9215 27.8095 40.3259ZM25.0428 47.4298L26.3594 48.7464C27.1553 49.5423 27.1553 50.8374 26.3594 51.6332C25.5634 52.4291 24.2684 52.4293 23.4724 51.6332L22.1558 50.3166C21.9557 50.1165 21.6932 50.0164 21.4308 50.0164C21.1684 50.0164 20.9059 50.1165 20.7058 50.3166L19.3892 51.6332C18.5933 52.4291 17.2982 52.4293 16.5022 51.6332C15.7062 50.8374 15.7062 49.5423 16.5022 48.7464L17.8188 47.4298C18.0112 47.2374 18.1192 46.9767 18.1192 46.7047C18.1192 46.4326 18.0112 46.1719 17.8188 45.9795L16.5022 44.6629C15.7062 43.8671 15.7062 42.5719 16.5022 41.7761C17.2981 40.9802 18.5932 40.98 19.3892 41.7761L20.7058 43.0927C21.1062 43.493 21.7555 43.493 22.1558 43.0927L23.4724 41.7761C24.2682 40.9802 25.5634 40.98 26.3594 41.7761C27.1553 42.5719 27.1553 43.8671 26.3594 44.6629L25.0428 45.9795C24.8504 46.1719 24.7424 46.4326 24.7424 46.7047C24.7424 46.9767 24.8504 47.2374 25.0428 47.4298Z" fill="white"/>
<path d="M53.4982 16.7169H43.6408C41.3844 16.7169 39.5486 18.5526 39.5486 20.809C39.5486 23.0655 41.3844 24.9012 43.6408 24.9012H53.4982C55.7546 24.9012 57.5903 23.0655 57.5903 20.809C57.5903 18.5526 55.7546 16.7169 53.4982 16.7169ZM53.4982 22.8504H43.6408C42.5152 22.8504 41.5994 21.9347 41.5994 20.809C41.5994 19.6836 42.5152 18.7677 43.6408 18.7677H53.4982C54.6238 18.7677 55.5395 19.6834 55.5395 20.809C55.5395 21.9345 54.6238 22.8504 53.4982 22.8504Z" fill="white"/>
<path d="M42.2144 52.7331C42.9873 53.5058 44.0148 53.9317 45.1079 53.9317C46.201 53.9317 47.2285 53.5059 48.0016 52.7331L54.9719 45.7629C55.7448 44.99 56.1705 43.9623 56.1705 42.8692C56.1705 41.7761 55.7448 40.7484 54.9719 39.9756C53.3764 38.3801 50.7802 38.3801 49.1847 39.9756L42.2145 46.9458C40.6187 48.5414 40.6187 51.1374 42.2144 52.7331ZM43.6644 48.3959L50.6346 41.4257C51.0326 41.0277 51.5553 40.8288 52.0781 40.8288C52.6008 40.8288 53.1236 41.0277 53.5216 41.4257C54.3175 42.2216 54.3175 43.5167 53.5216 44.3126L46.5512 51.2827C45.7554 52.0786 44.4603 52.0789 43.6643 51.2827C42.8684 50.4869 42.8684 49.1919 43.6644 48.3959Z" fill="white"/>
<path d="M40.5444 42.1724C41.0774 42.7053 41.7776 42.9719 42.4778 42.9719C43.1781 42.9719 43.8784 42.7053 44.4114 42.1722C44.9278 41.6559 45.2122 40.9691 45.2122 40.2388C45.2122 39.5083 44.9278 38.8217 44.4114 38.3053C43.8951 37.7888 43.2083 37.5044 42.4778 37.5044C41.7475 37.5044 41.0607 37.7888 40.5444 38.3052C40.028 38.8215 39.7435 39.5083 39.7435 40.2388C39.7433 40.9691 40.0278 41.6557 40.5444 42.1724C40.5442 42.1724 40.5442 42.1724 40.5444 42.1724ZM41.9999 39.7608C42.1255 39.6353 42.2964 39.5553 42.4777 39.5553C42.8501 39.5553 43.1613 39.8672 43.1613 40.2389C43.1613 40.4214 43.0902 40.5931 42.9611 40.7222C42.6947 40.9885 42.2609 40.9888 41.9944 40.7222C41.8653 40.5931 41.7942 40.4214 41.7942 40.2389C41.7941 40.0571 41.8744 39.8862 41.9999 39.7608Z" fill="white"/>
<path d="M52.7274 51.237C52.2108 51.7535 51.9265 52.4403 51.9265 53.1705C51.9265 53.901 52.2108 54.5876 52.7272 55.104C53.2436 55.6205 53.9304 55.9049 54.6608 55.9049C55.3912 55.9049 56.0779 55.6205 56.5943 55.1041C57.1107 54.5877 57.3952 53.901 57.3952 53.1705C57.3952 52.4401 57.1107 51.7535 56.5943 51.237C55.528 50.1712 53.7934 50.1712 52.7274 51.237ZM55.137 52.6943C55.2628 52.8198 55.3443 52.9902 55.3443 53.1706C55.3443 53.5413 55.0298 53.8542 54.6607 53.8542C54.2966 53.8542 53.9771 53.5406 53.9771 53.1706C53.9771 52.7998 54.291 52.4874 54.6607 52.4874C54.8393 52.4874 55.0106 52.5681 55.137 52.6943Z" fill="white"/>
</svg>
