<svg width="70" height="74" viewBox="0 0 70 74" fill="none" xmlns="http://www.w3.org/2000/svg">
<path d="M69.9021 8.21653C69.7582 6.23111 69.3294 4.29449 68.0615 2.81086C65.8396 0.210334 61.9603 0.00958854 58.5398 0.00887313C43.2193 0.00586839 27.8989 0.00300673 12.5784 1.99596e-06C8.88488 -0.000713418 4.73204 0.189444 2.23296 2.90916C-0.198304 5.5549 -0.119894 9.5761 0.103315 13.1625C0.122059 13.4645 0.146955 13.7842 0.322661 14.0306C0.799127 14.6986 1.96325 14.2266 2.23325 13.4518C2.50324 12.677 2.2291 11.8341 2.08315 11.0265C1.63201 8.52974 2.52528 5.83034 4.37677 4.09546C6.22826 2.36058 8.98003 1.64474 11.4422 2.25728C8.87916 4.1122 8.64164 7.77369 8.64393 10.9377C8.65466 25.4816 8.66525 40.0255 8.67598 54.5695C6.28049 54.4218 3.83935 55.3962 2.20406 57.1528C2.20635 44.5169 2.20849 31.8808 2.21078 19.2449C2.21092 18.3468 1.84649 17.1101 0.959666 17.2521C0.235667 17.368 0.0625365 18.3185 0.0623934 19.0518C0.0595317 33.6951 0.0566701 48.3385 0.0539515 62.9819C0.0536653 64.8121 0.0746983 66.7757 0.91717 68.4475C1.28432 69.1761 1.87525 69.7737 2.38806 70.4002C2.87483 70.9948 3.48379 71.4773 4.15284 71.8517C6.46435 73.1453 9.30697 73.265 11.8935 73.2655C24.6061 73.2688 37.3186 73.2721 50.0312 73.2756C50.7499 73.2757 51.6714 73.1223 51.8199 72.4192C52.0142 71.5002 50.7104 71.0914 49.7711 71.0934C37.3345 71.1194 24.898 71.1453 12.4614 71.1714C9.28837 71.178 5.68898 70.9998 3.62301 68.5915C2.32396 67.0772 1.93964 64.9517 2.10776 62.9637C2.28032 60.9235 3.09203 58.7963 4.81603 57.6918C6.30495 56.738 8.18291 56.7077 9.95113 56.7079C26.5055 56.7097 43.0601 56.7116 59.6145 56.7133C61.145 56.7134 62.7082 56.7187 64.1566 57.2134C65.605 57.708 66.944 58.7894 67.3298 60.2705C51.1571 60.2666 34.9846 60.2627 18.8121 60.2587C17.8464 60.2585 16.4932 60.7328 16.771 61.6577C16.9618 62.2925 17.7952 62.4114 18.4581 62.4113C34.9161 62.4107 51.3742 62.4103 67.8321 62.4097C67.8237 63.4163 67.8152 64.4227 67.8068 65.4293C51.3571 65.429 34.9073 65.4289 18.4577 65.4286C17.7934 65.4286 16.9576 65.5485 16.7685 66.1854C16.4943 67.109 17.8439 67.58 18.8072 67.5799C34.9109 67.577 51.0148 67.5741 67.1184 67.5713C65.3619 70.8008 60.9958 71.452 57.3402 71.0611C56.6984 70.9924 56.0158 70.9101 55.4356 71.193C54.8554 71.4759 54.4897 72.2893 54.8999 72.7875C55.1732 73.1193 55.6515 73.1753 56.0802 73.2066C58.3299 73.3711 60.6103 73.5341 62.8261 73.1119C65.042 72.6896 67.2235 71.6063 68.4943 69.7428C69.951 67.6068 70.0014 64.8448 70 62.2595C69.9911 45.1051 69.9821 27.9509 69.9732 10.7966C69.9734 9.94941 69.9645 9.07832 69.9021 8.21653ZM61.9331 54.5693H10.8136L10.8098 8.12882C10.9557 4.83463 13.7517 2.15812 17.0525 2.15812H60.523C64.4266 2.15812 67.6257 4.7844 67.8274 8.0776C67.8278 8.08633 67.8283 8.09491 67.8287 8.10364C67.8344 8.20451 67.8377 8.30596 67.8377 8.40798V57.1551C66.366 55.5663 64.2642 54.5693 61.9331 54.5693Z" fill="white"/>
<path d="M29.4782 40.1627C28.8855 40.1627 28.405 40.6432 28.405 41.2358V43.1277C28.405 43.7203 28.8855 44.2008 29.4782 44.2008C30.0708 44.2008 30.5513 43.7203 30.5513 43.1277V41.2358C30.5513 40.6432 30.0708 40.1627 29.4782 40.1627Z" fill="white"/>
<path d="M49.1684 40.1627C48.5756 40.1627 48.0953 40.6432 48.0953 41.2358V43.1277C48.0953 43.7203 48.5756 44.2008 49.1684 44.2008C49.761 44.2008 50.2415 43.7203 50.2415 43.1277V41.2358C50.2415 40.6432 49.761 40.1627 49.1684 40.1627Z" fill="white"/>
<path d="M42.6239 42.2625C42.177 41.873 41.4992 41.9195 41.1098 42.3664C40.6588 42.8839 40.0075 43.1808 39.3232 43.1808C38.639 43.1808 37.9877 42.8839 37.5367 42.3664C37.1471 41.9195 36.4693 41.873 36.0226 42.2625C35.5758 42.652 35.5294 43.3298 35.9186 43.7766C36.7775 44.762 38.0185 45.3271 39.3232 45.3271C40.628 45.3271 41.869 44.7619 42.7279 43.7766C43.1172 43.3298 43.0707 42.6518 42.6239 42.2625Z" fill="white"/>
<path d="M54.1572 26.7033C54.2119 26.549 54.2637 26.3938 54.3126 26.2374C55.2397 23.273 55.3019 20.077 54.4849 17.0801C53.638 13.9736 51.891 11.0937 49.3995 9.03499C44.2914 4.81419 36.4321 4.3237 30.839 7.87673C25.2459 11.4298 22.3498 18.7525 23.9997 25.1699C25.6496 31.5874 31.7183 36.6053 38.3314 37.0203C41.7555 37.235 45.197 36.202 48.0422 34.3113C50.7826 32.4904 53.0514 29.8228 54.1572 26.7033ZM52.994 21.5888C52.9911 21.705 52.9852 21.8203 52.9807 21.936C52.8894 23.7219 52.4531 25.4178 51.7387 26.9597H44.3641C43.2506 26.9597 42.3446 26.0537 42.3446 24.9401C42.3446 23.8265 43.2506 22.9205 44.3641 22.9205H47.3332C47.926 22.9205 48.4063 22.44 48.4063 21.8473V18.1973C48.4063 17.9257 48.4591 17.6624 48.5633 17.4149C48.7026 17.0835 48.6667 16.7045 48.4678 16.405C48.269 16.1057 47.9334 15.9257 47.574 15.9257H46.647C45.5335 15.9257 44.6275 15.0197 44.6275 13.9061V9.57384C44.6275 9.27007 44.6946 8.97632 44.8215 8.70933C45.9596 9.21098 47.0168 9.863 47.9678 10.6408C51.1848 13.2604 53.114 17.3517 52.994 21.5888ZM29.9303 17.02V22.5769C29.9303 23.561 29.1296 24.3619 28.1454 24.3619H26.0106C25.3221 21.4499 25.6222 18.3146 26.8652 15.5918C27.4002 14.4142 28.0979 13.3258 28.9285 12.3542H30.7948C31.779 12.3542 32.5798 13.1549 32.5798 14.1392C32.5798 15.0686 31.8532 15.8493 30.9256 15.9163C30.3644 15.9568 29.9299 16.4239 29.9299 16.9865C29.9298 16.9973 29.93 17.0086 29.9303 17.02ZM35.5984 34.3891C33.339 33.7487 31.3159 32.5403 29.6932 30.9292H32.9046C34.3899 30.9292 35.5984 32.1376 35.5984 33.6229V34.3891ZM39.3234 34.9049C38.7894 34.9049 38.2627 34.8732 37.7446 34.8132V33.623C37.7446 30.9543 35.5734 28.7831 32.9046 28.7831H28.3418C28.2083 28.7831 28.0748 28.7907 27.9418 28.8017C27.4614 28.082 27.0472 27.3147 26.7084 26.508H28.1455C30.3132 26.508 32.0767 24.7445 32.0767 22.5768V17.852C33.6219 17.3159 34.726 15.8407 34.726 14.139C34.726 12.111 33.1822 10.4369 31.2079 10.2297C33.4795 8.54922 36.2873 7.55422 39.3234 7.55422C40.5202 7.55422 41.6813 7.70932 42.7883 7.99935C42.5869 8.49284 42.481 9.0254 42.481 9.57384V13.9062C42.481 16.0737 44.1447 17.8599 46.2624 18.0545C46.2608 18.102 46.2599 18.1496 46.2599 18.1973V20.7742H44.3639C42.0669 20.7742 40.1982 22.643 40.1982 24.9401C40.1982 27.2371 42.067 29.1059 44.3639 29.1059H50.4965C48.0181 32.6115 43.9337 34.9049 39.3234 34.9049Z" fill="white"/>
</svg>
