<svg width="38" height="42" viewBox="0 0 38 42" fill="none" xmlns="http://www.w3.org/2000/svg">
<path d="M34.0548 41.6407C35.0643 41.6407 36.0741 41.2554 36.8445 40.4852C38.3853 38.9444 38.3851 36.4466 36.8443 34.9061C35.1026 33.1644 33.1674 31.7309 31.1073 30.6058C34.5493 27.3742 36.7025 22.785 36.7025 17.7024C36.7025 7.94117 28.7612 0 19.0001 0C9.23894 0 1.29777 7.94117 1.29777 17.7024C1.29777 22.785 3.45097 27.3742 6.89282 30.6058C4.83272 31.7309 2.89748 33.1644 1.15555 34.9061C-0.385184 36.4468 -0.385184 38.9446 1.15555 40.4852C2.69609 42.0257 5.19389 42.0257 6.73462 40.4852C13.4978 33.7222 24.5021 33.7222 31.2655 40.4852C32.0357 41.2556 33.0453 41.6407 34.0548 41.6407ZM19 7.89008C24.4106 7.89008 28.8122 12.2918 28.8122 17.7024C28.8122 23.113 24.4104 27.5149 19 27.5149C13.5895 27.5149 9.18765 23.113 9.18765 17.7024C9.18765 12.2918 13.5893 7.89008 19 7.89008Z" fill="#3BC202"/>
</svg>
