<svg width="3506" height="2540" viewBox="0 0 3506 2540" fill="none" xmlns="http://www.w3.org/2000/svg">
<path d="M0 2176.72H3506V2297.62C3506 2431.15 3397.74 2539.41 3264.21 2539.41H241.793C108.264 2539.41 0 2431.15 0 2297.62V2176.72Z" fill="#FEE000"/>
<path d="M483.586 0.585938H3022.41C3089.18 0.585938 3143.31 54.7178 3143.31 121.482V2176.72H362.689V121.482C362.689 54.7178 416.821 0.585938 483.586 0.585938Z" fill="#00C6FF"/>
<path d="M2055.24 1693.14C1387.54 1693.14 846.276 1151.88 846.276 484.172V0.585938H483.586C416.821 0.585938 362.689 54.7178 362.689 121.482V2176.72H3143.31V1693.14H2055.24Z" fill="#007FE0"/>
<path d="M2236.59 1270H2478.38V1390.9H2236.59V1270Z" fill="#DB6A03"/>
<path d="M2055.24 1330.45H2659.72C2793.25 1330.45 2901.52 1438.71 2901.52 1572.24V2176.72H1813.45V1572.24C1813.45 1438.71 1921.71 1330.45 2055.24 1330.45Z" fill="#FFAA00"/>
<path d="M2417.93 1995.38C2217.64 1995.38 2055.24 1832.98 2055.24 1632.69V1330.45C1921.71 1330.45 1813.45 1438.71 1813.45 1572.24V2176.72H2901.52V1995.38H2417.93Z" fill="#DB6A03"/>
<path d="M2357.48 1632.69L2176.14 1330.45H2538.83L2357.48 1632.69Z" fill="#FEE000"/>
<path d="M2115.69 846.862H2599.28V1088.66C2599.28 1222.18 2491.01 1330.45 2357.48 1330.45C2223.95 1330.45 2115.69 1222.18 2115.69 1088.66V846.862Z" fill="#FFAA00"/>
<path d="M2236.59 1088.66V846.862H2115.69V1088.66C2114.8 1163.71 2149.22 1234.82 2208.63 1280.68C2268.05 1326.52 2345.56 1341.81 2417.93 1321.92C2311.38 1294.59 2236.79 1198.66 2236.59 1088.66Z" fill="#DB6A03"/>
<path d="M2538.83 484.173H1873.9V665.517C1873.96 828.828 1968.08 977.499 2115.69 1047.36V846.862H2599.28V1082.6C2751.46 1051.7 2855.44 910.528 2839.83 756.042C2824.24 601.557 2694.11 484.025 2538.83 484.173Z" fill="#8A00F0"/>
<path d="M2538.83 484.172H1879.95C1908.67 624.904 2032.48 725.995 2176.14 725.965H2835.02C2806.3 585.234 2682.48 484.143 2538.83 484.172Z" fill="#9C02A0"/>
<path d="M1571.65 544.621V363.276C1571.65 329.894 1544.59 302.828 1511.21 302.828H785.827C752.445 302.828 725.379 329.894 725.379 363.276V725.966C725.379 759.348 752.445 786.414 785.827 786.414H1450.76L1692.55 846.862L1571.65 544.621Z" fill="#FEE000"/>
<path d="M1088.07 605.069C1121.45 605.069 1148.52 578.003 1148.52 544.621C1148.52 511.238 1121.45 484.172 1088.07 484.172H967.173C933.791 484.172 906.725 511.238 906.725 544.621C906.725 578.003 933.791 605.069 967.173 605.069H1088.07Z" fill="#000066"/>
<path d="M1329.86 544.621C1329.86 578.003 1302.8 605.069 1269.41 605.069C1236.03 605.069 1208.96 578.003 1208.96 544.621C1208.96 511.238 1236.03 484.172 1269.41 484.172C1302.8 484.172 1329.86 511.238 1329.86 544.621Z" fill="#000066"/>
<path d="M664.931 1088.66H1511.21C1544.59 1088.66 1571.65 1115.72 1571.65 1149.1V1874.48C1571.65 1907.87 1544.59 1934.93 1511.21 1934.93H664.931C631.548 1934.93 604.482 1907.87 604.482 1874.48V1149.1C604.482 1115.72 631.548 1088.66 664.931 1088.66Z" fill="#FEE000"/>
<path d="M604.482 1149.1V1874.48C604.482 1907.87 631.548 1934.93 664.931 1934.93H1511.21C1544.59 1934.93 1571.65 1907.87 1571.65 1874.48V1591.9C1335.5 1488.21 1138.57 1311.94 1009.5 1088.66H664.931C631.548 1088.66 604.482 1115.72 604.482 1149.1Z" fill="#FFAA00"/>
<path d="M1208.96 1451.34C1208.96 1518.11 1154.83 1572.24 1088.07 1572.24C1021.3 1572.24 967.172 1518.11 967.172 1451.34C967.172 1384.58 1021.3 1330.45 1088.07 1330.45C1154.83 1330.45 1208.96 1384.58 1208.96 1451.34Z" fill="#8A00F0"/>
<path d="M1027.62 1572.24H1148.52C1215.28 1572.24 1269.41 1626.37 1269.41 1693.14V1934.93H906.725V1693.14C906.725 1626.37 960.857 1572.24 1027.62 1572.24Z" fill="#8A00F0"/>
<path d="M725.379 363.276V725.966C725.379 759.348 752.445 786.414 785.827 786.414H885.915C860 687.743 846.659 586.179 846.275 484.172V302.828H785.827C752.445 302.828 725.379 329.894 725.379 363.276Z" fill="#FFAA00"/>
<path d="M785.828 2176.72H1269.41V2539.41H785.828V2176.72Z" fill="#FFAA00"/>
<path d="M3264.21 2418.52H241.793C108.264 2418.52 0 2310.25 0 2176.72V2297.62C0 2431.15 108.264 2539.41 241.793 2539.41H3264.21C3397.74 2539.41 3506 2431.15 3506 2297.62V2176.72C3506 2310.25 3397.74 2418.52 3264.21 2418.52Z" fill="#E5C200"/>
<path d="M785.828 2418.52H1269.41V2539.41H785.828V2418.52Z" fill="#DB6A03"/>
</svg>
