<svg width="108" height="96" viewBox="0 0 108 96" fill="none" xmlns="http://www.w3.org/2000/svg">
<path d="M61.0239 36.9185C61.0239 34.5622 62.9339 32.6521 65.2902 32.6521H91.6886V11.668H4.83553V72.2649C4.83553 73.4213 5.77298 74.3588 6.92946 74.3588H61.0236V36.9185H61.0239Z" fill="#F9F3F1"/>
<path d="M15.4951 72.2649V11.668H4.83553V72.2649C4.83553 73.4213 5.77298 74.3588 6.92946 74.3588H17.589C16.4326 74.3588 15.4951 73.4213 15.4951 72.2649Z" fill="#EFE2DD"/>
<path d="M92.8597 11.6679H3.66438C2.5079 11.6679 1.57045 10.7305 1.57045 9.57398V4.61932C1.57045 3.46284 2.5079 2.52539 3.66438 2.52539H92.8597C94.0162 2.52539 94.9537 3.46284 94.9537 4.61932V9.57398C94.9537 10.7305 94.0162 11.6679 92.8597 11.6679Z" fill="#CDBFBA"/>
<path d="M12.5636 8.18089C11.4071 8.18089 10.4697 7.24343 10.4697 6.08696V2.52539H3.66438C2.5079 2.52539 1.57045 3.46284 1.57045 4.61932V9.57398C1.57045 10.7305 2.5079 11.6679 3.66438 11.6679H92.8597C94.0162 11.6679 94.9537 10.7305 94.9537 9.57398V8.18089H12.5636Z" fill="#B9ACAC"/>
<path d="M35.4605 28.4291H15.7868C15.2087 28.4291 14.7398 27.9603 14.7398 27.3822V21.2044C14.7398 20.6263 15.2087 20.1575 15.7868 20.1575H35.4605C36.0387 20.1575 36.5075 20.6263 36.5075 21.2044V27.3822C36.5075 27.9603 36.0389 28.4291 35.4605 28.4291Z" fill="#FFD15B"/>
<path d="M21.7861 27.3822V21.2044C21.7861 20.6263 22.255 20.1575 22.8331 20.1575H15.7868C15.2087 20.1575 14.7398 20.6263 14.7398 21.2044V27.3822C14.7398 27.9603 15.2087 28.4291 15.7868 28.4291H22.8331C22.255 28.4291 21.7861 27.9603 21.7861 27.3822Z" fill="#FFC344"/>
<path d="M35.4605 46.2787H15.7868C15.2087 46.2787 14.7398 45.8099 14.7398 45.2318V39.054C14.7398 38.4759 15.2087 38.0071 15.7868 38.0071H35.4605C36.0387 38.0071 36.5075 38.4759 36.5075 39.054V45.2318C36.5075 45.8099 36.0389 46.2787 35.4605 46.2787Z" fill="#01D0FB"/>
<path d="M21.7861 45.2318V39.054C21.7861 38.4759 22.2549 38.0071 22.8331 38.0071H15.7868C15.2087 38.0071 14.7398 38.4759 14.7398 39.054V45.2318C14.7398 45.8099 15.2087 46.2787 15.7868 46.2787H22.8331C22.2549 46.2787 21.7861 45.8099 21.7861 45.2318Z" fill="#01C0FA"/>
<path d="M35.4605 64.1283H15.7868C15.2087 64.1283 14.7398 63.6595 14.7398 63.0814V56.9037C14.7398 56.3255 15.2087 55.8567 15.7868 55.8567H35.4605C36.0387 55.8567 36.5075 56.3255 36.5075 56.9037V63.0814C36.5075 63.6595 36.0389 64.1283 35.4605 64.1283Z" fill="#05E39C"/>
<path d="M21.7861 63.0814V56.9037C21.7861 56.3255 22.2549 55.8567 22.8331 55.8567H15.7868C15.2087 55.8567 14.7398 56.3255 14.7398 56.9037V63.0814C14.7398 63.6595 15.2087 64.1283 15.7868 64.1283H22.8331C22.2549 64.1283 21.7861 63.6595 21.7861 63.0814Z" fill="#0ED290"/>
<path d="M48.2622 92.6371C50.4594 92.6371 52.2407 90.8559 52.2407 88.6586C52.2407 86.4614 50.4594 84.6802 48.2622 84.6802C46.0649 84.6802 44.2837 86.4614 44.2837 88.6586C44.2837 90.8559 46.0649 92.6371 48.2622 92.6371Z" fill="#CDBFBA"/>
<path d="M47.7416 88.6586C47.7416 87.0819 48.6611 85.7236 49.9911 85.0797C49.4677 84.8263 48.8826 84.6802 48.2622 84.6802C46.065 84.6802 44.2837 86.4615 44.2837 88.6586C44.2837 90.8558 46.065 92.6371 48.2622 92.6371C48.8828 92.6371 49.4677 92.491 49.9911 92.2376C48.6611 91.5939 47.7416 90.2354 47.7416 88.6586Z" fill="#B9ACAC"/>
<path d="M65.2902 32.6519C62.9339 32.6519 61.0238 34.5619 61.0238 36.9182V85.9217H61.1038C61.5304 83.4975 63.645 81.6553 66.1914 81.6553H105.639V34.8287C105.639 33.6266 104.664 32.6519 103.462 32.6519H65.2902Z" fill="#FD6930"/>
<path d="M61.0238 49.5735V85.9216H61.1038C61.5304 83.4974 63.645 81.6552 66.1915 81.6552H69.923V46.0557C67.3678 47.9276 64.3268 49.1758 61.0238 49.5735Z" fill="#EF4424"/>
<path d="M66.1915 81.6555C63.3374 81.6555 61.0238 83.9691 61.0238 86.8231C61.0238 89.5791 63.1816 91.8307 65.8998 91.9821V87.0712H72.3482V91.9907H103.462C104.664 91.9907 105.639 91.0162 105.639 89.8139V81.6553H66.1915V81.6555Z" fill="#F3EAE6"/>
<path d="M69.923 86.8231C69.923 83.9691 72.2366 81.6555 75.0907 81.6555H66.1915C63.3374 81.6555 61.0238 83.9691 61.0238 86.8231C61.0238 89.5792 63.1816 91.8308 65.8998 91.9822V87.0713H69.9291C69.9251 86.9892 69.923 86.9065 69.923 86.8231Z" fill="#E1D3CE"/>
<path d="M65.8998 87.071V93.9609C65.8998 94.2966 66.2715 94.4988 66.5533 94.3165L68.8941 92.8021C69.034 92.7117 69.2143 92.7117 69.3542 92.8021L71.695 94.3165C71.9768 94.4988 72.3485 94.2966 72.3485 93.9609V87.071H65.8998Z" fill="#01D0FB"/>
<path d="M69.3518 87.071H65.8998V93.9609C65.8998 94.2966 66.2714 94.4988 66.5533 94.3165L68.8941 92.8021C69.0333 92.7121 69.2124 92.7119 69.352 92.8011V87.071H69.3518Z" fill="#01C0FA"/>
<path d="M93.3445 73.1399H73.3181C71.642 73.1399 70.2706 71.7686 70.2706 70.0924C70.2706 68.4162 71.642 67.0449 73.3181 67.0449H93.3445C95.0207 67.0449 96.392 68.4162 96.392 70.0924C96.3918 71.7684 95.0205 73.1399 93.3445 73.1399Z" fill="white"/>
<path d="M77.319 70.0924C77.319 68.4162 78.6903 67.0449 80.3665 67.0449H73.3181C71.642 67.0449 70.2706 68.4162 70.2706 70.0924C70.2706 71.7686 71.642 73.1399 73.3181 73.1399H80.3665C78.6903 73.1399 77.319 71.7684 77.319 70.0924Z" fill="#F9F3F1"/>
<path d="M77.5912 32.6519H65.2902C62.9339 32.6519 61.0238 34.5619 61.0238 36.9182V49.5735C69.7922 48.5178 76.7172 41.4751 77.5912 32.6519Z" fill="#FFD15B"/>
<path d="M69.923 32.6519H65.2902C62.9339 32.6519 61.0238 34.5619 61.0238 36.9182V49.5735C64.327 49.1757 67.368 47.9277 69.923 46.0557V32.6519Z" fill="#FFC344"/>
<path d="M15.787 54.2857C14.3436 54.2857 13.1696 55.4598 13.1696 56.9031V63.0811C13.1696 64.5244 14.3436 65.6985 15.787 65.6985H35.4607C36.9041 65.6985 38.0781 64.5244 38.0781 63.0811V56.9031C38.0781 55.4598 36.9041 54.2857 35.4607 54.2857H27.1943V47.849H35.4607C36.9041 47.849 38.0781 46.6749 38.0781 45.2316V39.0538C38.0781 37.6105 36.9041 36.4364 35.4607 36.4364H27.1943V29.9995H35.4607C36.9041 29.9995 38.0781 28.8254 38.0781 27.382V21.2043C38.0781 19.761 36.9041 18.5869 35.4607 18.5869H15.787C14.3436 18.5869 13.1696 19.761 13.1696 21.2043V27.382C13.1696 28.8254 14.3436 29.9995 15.787 29.9995H24.0534V36.4364H15.787C14.3436 36.4364 13.1696 37.6105 13.1696 39.0538V45.2316C13.1696 46.6749 14.3436 47.849 15.787 47.849H24.0534V54.2857H15.787ZM16.3105 21.7278H34.9372V26.8586H16.3105V21.7278ZM16.3105 39.5773H34.9372V44.7081H16.3105V39.5773ZM34.9372 62.5576H16.3105V57.4266H34.9372V62.5576Z" fill="black"/>
<path d="M81.7843 18.5869H57.1643C56.2968 18.5869 55.5939 19.2898 55.5939 20.1574C55.5939 21.0249 56.2968 21.7278 57.1643 21.7278H81.7843C82.6518 21.7278 83.3548 21.0249 83.3548 20.1574C83.3548 19.2898 82.6518 18.5869 81.7843 18.5869Z" fill="black"/>
<path d="M44.7793 21.7278H51.5107C52.378 21.7278 53.0811 21.0249 53.0811 20.1574C53.0811 19.2898 52.378 18.5869 51.5107 18.5869H44.7793C43.912 18.5869 43.2089 19.2898 43.2089 20.1574C43.2089 21.0249 43.9118 21.7278 44.7793 21.7278Z" fill="black"/>
<path d="M81.7843 24.8682H75.3815C74.514 24.8682 73.8111 25.5711 73.8111 26.4386C73.8111 27.3061 74.514 28.0091 75.3815 28.0091H81.7843C82.6518 28.0091 83.3548 27.3061 83.3548 26.4386C83.3548 25.5711 82.6518 24.8682 81.7843 24.8682Z" fill="black"/>
<path d="M44.7793 28.0091H70.3561C71.2236 28.0091 71.9265 27.3061 71.9265 26.4386C71.9265 25.5711 71.2236 24.8682 70.3561 24.8682H44.7793C43.912 24.8682 43.2089 25.5711 43.2089 26.4386C43.2089 27.3061 43.9118 28.0091 44.7793 28.0091Z" fill="black"/>
<path d="M44.7793 34.2908H54.861C55.7285 34.2908 56.4314 33.5879 56.4314 32.7204C56.4314 31.8528 55.7285 31.1499 54.861 31.1499H44.7793C43.912 31.1499 43.2089 31.8528 43.2089 32.7204C43.2089 33.5879 43.9118 34.2908 44.7793 34.2908Z" fill="black"/>
<path d="M44.7793 40.5723H54.861C55.7285 40.5723 56.4314 39.8694 56.4314 39.0018C56.4314 38.1343 55.7285 37.4314 54.861 37.4314H44.7793C43.912 37.4314 43.2089 38.1343 43.2089 39.0018C43.2089 39.8694 43.9118 40.5723 44.7793 40.5723Z" fill="black"/>
<path d="M44.7793 46.8538H54.861C55.7285 46.8538 56.4314 46.1509 56.4314 45.2833C56.4314 44.4158 55.7285 43.7129 54.861 43.7129H44.7793C43.912 43.7129 43.2089 44.4158 43.2089 45.2833C43.2089 46.1509 43.9118 46.8538 44.7793 46.8538Z" fill="black"/>
<path d="M44.7793 53.135H54.861C55.7285 53.135 56.4314 52.4321 56.4314 51.5646C56.4314 50.6971 55.7285 49.9941 54.861 49.9941H44.7793C43.912 49.9941 43.2089 50.6971 43.2089 51.5646C43.2089 52.4321 43.9118 53.135 44.7793 53.135Z" fill="black"/>
<path d="M44.7793 59.417H54.861C55.7285 59.417 56.4314 58.7141 56.4314 57.8466C56.4314 56.9791 55.7285 56.2761 54.861 56.2761H44.7793C43.912 56.2761 43.2089 56.9791 43.2089 57.8466C43.2089 58.7141 43.9118 59.417 44.7793 59.417Z" fill="black"/>
<path d="M44.7793 65.6985H54.861C55.7285 65.6985 56.4314 64.9956 56.4314 64.1281C56.4314 63.2605 55.7285 62.5576 54.861 62.5576H44.7793C43.912 62.5576 43.2089 63.2605 43.2089 64.1281C43.2089 64.9956 43.9118 65.6985 44.7793 65.6985Z" fill="black"/>
<path d="M93.3443 65.4741H92.3423C91.4748 65.4741 90.7719 66.1771 90.7719 67.0446C90.7719 67.9121 91.4748 68.615 92.3423 68.615H93.3443C94.1588 68.615 94.8216 69.2775 94.8216 70.0921C94.8216 70.9066 94.1588 71.5691 93.3443 71.5691H73.3182C72.5036 71.5691 71.8409 70.9066 71.8409 70.0921C71.8409 69.2775 72.5036 68.615 73.3182 68.615H85.0136C85.8811 68.615 86.584 67.9121 86.584 67.0446C86.584 66.1771 85.8811 65.4741 85.0136 65.4741H73.3182C70.7717 65.4741 68.7 67.5459 68.7 70.0921C68.7 72.6383 70.7717 74.71 73.3182 74.71H93.3443C95.8907 74.71 97.9625 72.6383 97.9625 70.0921C97.9625 67.5459 95.8907 65.4741 93.3443 65.4741Z" fill="black"/>
<path d="M74.4807 61.8772C75.2678 62.2403 76.2013 61.8957 76.5639 61.1079L78.4765 56.9563C78.5662 56.9722 78.6581 56.982 78.7523 56.982H87.9769C88.0494 56.982 88.1203 56.9753 88.1903 56.9659L90.0985 61.1079C90.3634 61.6829 90.9317 62.0217 91.5257 62.0217C91.7456 62.0217 91.969 61.9752 92.1817 61.8772C92.9697 61.5146 93.3139 60.5815 92.9511 59.794L84.7575 42.0083C84.501 41.4516 83.9442 41.095 83.3311 41.095C82.718 41.095 82.1612 41.4516 81.9047 42.0083L73.7112 59.794C73.3485 60.5817 73.693 61.5146 74.4807 61.8772ZM83.3313 46.4186L86.7509 53.8411H79.9119L83.3313 46.4186Z" fill="black"/>
<path d="M103.462 31.0815H93.2589V13.2154C95.0921 13.0157 96.5241 11.4595 96.5241 9.57387V4.61921C96.5241 2.59878 94.8802 0.954834 92.8597 0.954834H22.4051C21.5378 0.954834 20.8346 1.65777 20.8346 2.52528C20.8346 3.3928 21.5378 4.09573 22.4051 4.09573H92.86C93.1487 4.09573 93.3834 4.33046 93.3834 4.61921V9.57387C93.3834 9.86262 93.1487 10.0974 92.86 10.0974H3.66438C3.37583 10.0974 3.1409 9.86262 3.1409 9.57387V4.61921C3.1409 4.33046 3.37583 4.09573 3.66438 4.09573H15.0763C15.9436 4.09573 16.6467 3.3928 16.6467 2.52528C16.6467 1.65777 15.9436 0.954834 15.0763 0.954834H3.66438C1.64394 0.954834 0 2.59878 0 4.61921V9.57387C0 11.4595 1.43183 13.0157 3.26507 13.2154V72.2647C3.26507 74.2851 4.90901 75.9291 6.92944 75.9291H28.2681C29.1354 75.9291 29.8385 75.2261 29.8385 74.3586C29.8385 73.4911 29.1354 72.7882 28.2681 72.7882H6.92944C6.6409 72.7882 6.40596 72.5534 6.40596 72.2647V13.2382H90.1182V31.0815H65.2902C62.0718 31.0815 59.4534 33.6999 59.4534 36.9183V72.7884H35.5968C34.7295 72.7884 34.0264 73.4913 34.0264 74.3588C34.0264 75.2263 34.7295 75.9293 35.5968 75.9293H46.6917V83.3376C44.3947 84.0167 42.7132 86.1445 42.7132 88.6587C42.7132 91.7184 45.2025 94.2076 48.2622 94.2076C51.3218 94.2076 53.8111 91.7184 53.8111 88.6587C53.8111 86.1443 52.1297 84.0167 49.8326 83.3376V75.9293H59.4534V86.8227C59.4534 89.8824 61.5021 92.487 64.3293 93.298V93.9607C64.3293 94.6915 64.728 95.3626 65.3702 95.7121C66.0124 96.0616 66.7926 96.0318 67.4063 95.6348L69.124 94.5236L70.8421 95.635C71.1708 95.8478 71.5473 95.9548 71.9248 95.9548C72.2519 95.9548 72.5798 95.8742 72.878 95.7121C73.52 95.3626 73.9189 94.6915 73.9189 93.9607V93.561H103.462C105.528 93.561 107.21 91.88 107.21 89.8137V34.8286C107.209 32.7625 105.528 31.0815 103.462 31.0815ZM50.6702 88.6585C50.6702 89.9863 49.5899 91.0665 48.2622 91.0665C46.9344 91.0665 45.8541 89.9863 45.8541 88.6585C45.8541 87.3307 46.9344 86.2505 48.2622 86.2505C49.5899 86.2505 50.6702 87.3309 50.6702 88.6585ZM62.5943 36.9183C62.5943 35.4316 63.8035 34.2224 65.2902 34.2224H75.763C75.0992 37.4858 73.4974 40.528 71.1465 42.926C68.8091 45.3104 65.8206 46.9675 62.5943 47.7029V36.9183ZM70.7778 91.8526L70.2076 91.4838C69.8784 91.2705 69.5011 91.1641 69.1236 91.1641C68.7467 91.1641 68.3696 91.2707 68.041 91.4834L67.47 91.8526V88.6413H70.7776V91.8526H70.7778ZM104.068 89.8137C104.068 90.1481 103.796 90.4201 103.462 90.4201H73.9187V88.6415H87.5717C88.4393 88.6415 89.1422 87.9386 89.1422 87.0711C89.1422 86.2036 88.4393 85.5006 87.5717 85.5006H65.8998C65.0322 85.5006 64.3293 86.2036 64.3293 87.0711V89.9016C63.2863 89.2695 62.5943 88.1229 62.5943 86.8229C62.5943 84.8394 64.2081 83.2258 66.1917 83.2258H104.068V89.8137ZM104.068 80.0847H66.1914C64.8693 80.0847 63.6358 80.4689 62.5941 81.1296V50.9127C66.6705 50.1316 70.4626 48.1099 73.3893 45.1246C76.3139 42.1414 78.2584 38.3126 78.9586 34.2224H103.462C103.796 34.2224 104.068 34.4944 104.068 34.8288V80.0847Z" fill="black"/>
</svg>
