<svg width="37" height="48" viewBox="0 0 37 48" fill="none" xmlns="http://www.w3.org/2000/svg">
<path d="M25.1276 29.4426C25.603 29.4426 26.0785 29.2612 26.4414 28.8984C27.1669 28.1729 27.1669 26.9966 26.4413 26.2711C25.6211 25.4509 24.7097 24.7759 23.7396 24.246C25.3605 22.7242 26.3745 20.563 26.3745 18.1695C26.3745 13.5727 22.6347 9.83301 18.038 9.83301C13.4412 9.83301 9.70156 13.5727 9.70156 18.1695C9.70156 20.563 10.7156 22.7242 12.3364 24.246C11.3663 24.7759 10.4549 25.4509 9.63458 26.2711C8.90902 26.9967 8.90902 28.173 9.63458 28.8984C10.3601 29.6239 11.5363 29.6239 12.2619 28.8984C15.4468 25.7136 20.629 25.7136 23.8141 28.8984C24.1768 29.2613 24.6522 29.4426 25.1276 29.4426ZM18.0379 13.5486C20.5859 13.5486 22.6588 15.6215 22.6588 18.1695C22.6588 20.7175 20.5858 22.7904 18.0379 22.7904C15.49 22.7904 13.4171 20.7175 13.4171 18.1695C13.4171 15.6215 15.4899 13.5486 18.0379 13.5486Z" fill="#FF003B"/>
<path d="M15.7255 36.1501C14.6995 36.1501 13.8677 36.9819 13.8677 38.008C13.8677 39.034 14.6995 39.8658 15.7255 39.8658H20.3503C21.3764 39.8658 22.2081 39.034 22.2081 38.008C22.2081 36.9819 21.3764 36.1501 20.3503 36.1501H15.7255Z" fill="#FF003B"/>
<path d="M34.2181 32.739C35.2442 32.739 36.0759 31.9073 36.0759 30.8812V7.43125C36.0759 3.33366 32.7423 0 28.6447 0H7.43125C3.33366 0 0 3.33366 0 7.43125V40.1287C0 44.2263 3.33366 47.56 7.43125 47.56H28.6448C32.7126 47.56 36.0461 44.251 36.0758 40.1838C36.0833 39.1579 35.2576 38.32 34.2316 38.3125C34.2269 38.3125 34.2224 38.3125 34.2178 38.3125C33.1981 38.3125 32.3678 39.1353 32.3604 40.1567C32.3455 42.1901 30.6787 43.8444 28.6449 43.8444H7.43125C5.38245 43.8444 3.71563 42.1775 3.71563 40.1287V7.43125C3.71563 5.38245 5.38245 3.71563 7.43125 3.71563H28.6448C30.6936 3.71563 32.3604 5.38245 32.3604 7.43125V30.8812C32.3603 31.9073 33.1921 32.739 34.2181 32.739Z" fill="#FF003B"/>
</svg>
