<svg width="47" height="48" viewBox="0 0 47 48" fill="none" xmlns="http://www.w3.org/2000/svg">
<path d="M44.3252 43.8444H16.836C14.7851 43.8444 12.8994 42.8139 11.7917 41.0879C11.7841 41.0762 11.7764 41.0644 11.7686 41.0528L4.41837 30.1513C3.74891 29.1411 3.21961 27.3172 4.499 26.4181C5.33427 25.8309 6.45091 25.9055 7.20341 26.583L13.7322 35.8553C14.9153 37.6046 16.8765 38.6504 18.988 38.6582C18.9965 38.6583 19.0051 38.6584 19.0136 38.6584H29.8442C30.8703 38.6584 31.702 37.8267 31.702 36.8006C31.702 35.7745 30.8703 34.9428 29.8442 34.9428H19.028C19.0233 34.9428 19.0185 34.9427 19.0138 34.9427C17.7871 34.9427 16.7891 33.9223 16.7891 32.6679C16.7891 31.4135 17.7871 30.3929 19.0146 30.3929L36.4713 30.3857H36.4738C38.0742 30.3857 39.5791 31.0089 40.711 32.1404C41.8436 33.2725 42.4674 34.778 42.4674 36.3793C42.4674 37.4054 43.2991 38.2371 44.3252 38.2371C45.3513 38.2371 46.183 37.4054 46.183 36.3793C46.183 33.7852 45.1726 31.3464 43.3378 29.5125C41.5039 27.6794 39.0667 26.6701 36.4738 26.6701H36.4697L19.0137 26.6773C16.8362 26.6773 14.9286 27.8648 13.8943 29.6316L10.1393 24.2986C10.0802 24.2147 10.0144 24.136 9.94239 24.063C7.91189 22.0063 4.72398 21.7182 2.36251 23.3781C0.92085 24.3911 0.0839986 25.9407 0.00597047 27.7416C-0.0591459 29.2455 0.410138 30.8336 1.32743 32.2134C1.32966 32.2167 1.33189 32.2201 1.33412 32.2233L8.67675 43.1135C10.4727 45.8982 13.5213 47.56 16.836 47.56H44.3252C45.3513 47.56 46.183 46.7283 46.183 45.7022C46.183 44.6761 45.3513 43.8444 44.3252 43.8444Z" fill="#FF003B"/>
<path d="M20.9556 23.2003C22.9911 21.1648 25.6975 20.0438 28.5761 20.0438C31.4547 20.0438 34.1609 21.1649 36.1964 23.2003C36.5592 23.5631 37.0345 23.7444 37.5101 23.7444C37.9855 23.7444 38.461 23.563 38.8238 23.2003C39.5493 22.4747 39.5493 21.2984 38.8239 20.573C37.6653 19.4144 36.3453 18.4763 34.9145 17.7794C37.1615 15.94 38.598 13.1456 38.598 10.022C38.5979 4.49581 34.1021 0 28.5761 0C23.05 0 18.5541 4.49581 18.5541 10.0219C18.5541 13.1455 19.9907 15.94 22.2377 17.7794C20.8069 18.4762 19.4868 19.4144 18.3283 20.5729C17.6027 21.2984 17.6026 22.4747 18.3282 23.2002C19.0538 23.9258 20.2301 23.9257 20.9556 23.2003ZM22.2697 10.0219C22.2697 6.54461 25.0987 3.71562 28.5761 3.71562C32.0533 3.71562 34.8823 6.54461 34.8823 10.0219C34.8823 13.4991 32.0533 16.3281 28.5761 16.3281C25.0987 16.3281 22.2697 13.4991 22.2697 10.0219Z" fill="#FF003B"/>
</svg>
