<svg width="50" height="48" viewBox="0 0 50 48" fill="none" xmlns="http://www.w3.org/2000/svg">
<path d="M48.0469 35.5229H5.70146V7.8125C5.70146 5.65859 7.45381 3.90625 9.60772 3.90625H40.3923C42.5462 3.90625 44.2985 5.65859 44.2985 7.8125V27.6909C44.2985 28.7696 45.173 29.644 46.2517 29.644C47.3304 29.644 48.2048 28.7696 48.2048 27.6909V7.8125C48.2048 3.50469 44.7001 0 40.3923 0H9.60772C5.2999 0 1.79521 3.50469 1.79521 7.8125V35.5292C0.790332 35.6097 0 36.4505 0 37.476V39.7463C0 44.0541 3.50469 47.5588 7.8125 47.5588H42.1875C46.4953 47.5588 50 44.0541 50 39.7463V37.476C50 36.3974 49.1256 35.5229 48.0469 35.5229ZM46.0938 39.7463C46.0938 41.9002 44.3414 43.6525 42.1875 43.6525H7.8125C5.65859 43.6525 3.90625 41.9002 3.90625 39.7463V39.4291H46.0938V39.7463Z" fill="#FF003B"/>
<path d="M15.9684 30.612C16.7312 31.3748 17.9679 31.3748 18.7306 30.612C22.1874 27.1552 27.8122 27.1552 31.2692 30.612C31.6505 30.9934 32.1504 31.1841 32.6503 31.1841C33.1502 31.1841 33.65 30.9934 34.0315 30.612C34.7943 29.8492 34.7943 28.6126 34.0315 27.8499C33.1321 26.9506 32.1311 26.2138 31.0649 25.6393C32.8344 24.0041 33.9442 21.6647 33.9442 19.0711C33.9442 14.1393 29.9319 10.127 25 10.127C20.0682 10.127 16.0559 14.1393 16.0559 19.0711C16.0559 21.6647 17.1656 24.004 18.9352 25.6393C17.869 26.2138 16.8679 26.9506 15.9686 27.8499C15.2056 28.6127 15.2056 29.8493 15.9684 30.612ZM24.9998 14.0333C27.7776 14.0333 30.0377 16.2933 30.0377 19.0712C30.0377 21.849 27.7776 24.109 24.9998 24.109C22.222 24.109 19.9619 21.849 19.9619 19.0712C19.9619 16.2933 22.222 14.0333 24.9998 14.0333Z" fill="#FF003B"/>
</svg>
