<svg width="70" height="57" viewBox="0 0 70 57" fill="none" xmlns="http://www.w3.org/2000/svg">
<path d="M69.9763 43.9244C69.9599 40.2869 70.0079 28.2149 69.9989 25.6624C69.968 23.758 69.8996 21.8444 69.7699 19.9305C69.5425 18.5038 68.9689 17.0518 68.2034 15.7909C67.6552 14.8733 67.0184 13.9512 66.1921 13.1247C65.4249 12.3575 64.6528 11.9026 63.8433 11.4571V6.93814C63.8433 3.50706 61.0512 0.715627 57.6193 0.715627H52.5256C49.0937 0.715627 46.3016 3.50706 46.3016 6.93814V9.73026H44.9052H39.7411C39.1357 8.65012 38.1622 7.78688 37.018 7.31454V3.61217C37.018 2.6493 36.6428 1.7426 35.959 1.05663C35.2754 0.375308 34.3687 0 33.4058 0C31.4132 0 29.7921 1.62041 29.7921 3.61217V7.31454C28.6475 7.7862 27.6748 8.65121 27.0685 9.73026H20.1846C19.8027 6.20242 16.8075 3.44679 13.1799 3.44679C11.2986 3.44679 9.52893 4.17936 8.19595 5.51057C6.86583 6.8426 6.13326 8.61226 6.13326 10.4936V11.4647C2.33494 13.7061 0 17.7653 0 22.2067V30.5575C0 31.1236 0.458952 31.5826 1.02506 31.5826C1.59116 31.5826 2.05011 31.1236 2.05011 30.5575V26.7096H62.2759H67.9617C67.997 32.4603 67.7663 38.1984 67.8604 43.9781C67.8831 44.3633 67.8794 44.7477 67.8543 45.1288C67.6461 46.9286 66.9782 48.5894 65.9708 49.9918C65.97 49.9927 65.9693 49.9937 65.9685 49.9945C65.9236 50.0459 65.8852 50.1007 65.8524 50.1576C63.955 52.6937 60.9316 54.3409 57.5301 54.3506C56.0745 54.2623 54.5969 54.1814 53.1376 54.1102C52.5734 54.0835 52.0915 54.5187 52.0639 55.0841C52.0363 55.6496 52.4723 56.1304 53.0378 56.158C54.4994 56.2293 55.9796 56.3104 57.4374 56.3991C57.458 56.4003 57.4789 56.401 57.4996 56.401C61.659 56.401 65.3489 54.3546 67.6172 51.2161C68.9146 49.6683 69.7222 47.5692 69.8914 45.374C69.9469 44.8982 69.9763 44.4148 69.9763 43.9244ZM52.5254 2.76574H57.6192C59.9206 2.76574 61.7931 4.6375 61.7931 6.93814V12.0552V12.0611V12.0759V12.0796V24.6595H48.3516V23.5422H51.2634C51.8296 23.5422 52.2885 23.0832 52.2885 22.5171C52.2885 21.951 51.8296 21.492 51.2634 21.492H48.3516V18.0092H51.2634C51.8296 18.0092 52.2885 17.5502 52.2885 16.9841C52.2885 16.418 51.8296 15.9591 51.2634 15.9591H48.3516V12.476H51.2634C51.8296 12.476 52.2885 12.0171 52.2885 11.451C52.2885 10.8849 51.8296 10.4259 51.2634 10.4259H48.3516V6.93814C48.3516 4.6375 50.224 2.76574 52.5254 2.76574ZM46.3014 11.7804V16.9762C46.3014 16.9789 46.301 16.9814 46.301 16.9841C46.301 16.9868 46.3014 16.9893 46.3014 16.992V22.5092C46.3014 22.5119 46.301 22.5144 46.301 22.5171C46.301 22.5198 46.3014 22.5223 46.3014 22.525V24.6595H40.4507V17.3842C40.4507 17.3824 40.451 17.3806 40.451 17.3788V12.4428C40.4477 12.2214 40.4387 11.9999 40.4101 11.7804H44.905H46.3014ZM18.1759 10.4936V15.4171H8.18379V10.4936C8.18379 7.73877 10.425 5.49745 13.1799 5.49745C15.9347 5.49745 18.1759 7.73864 18.1759 10.4936ZM8.18324 17.4673H18.1763V24.6596H8.18324V17.4673ZM20.2264 11.7804H26.3996C26.3709 12 26.362 12.2214 26.3587 12.4428V17.3788C26.3587 17.3806 26.359 17.3824 26.359 17.3842V24.6595H20.2264V11.7804ZM28.9042 10.6509C29.4479 9.73231 30.4279 9.09144 31.4895 8.97062C31.6525 8.92784 34.6479 8.94984 34.9021 8.94547C36.7771 8.90666 38.4386 10.5675 38.4006 12.4424V16.3539H28.4091V12.4424C28.4087 11.8151 28.5805 11.1882 28.9042 10.6509ZM28.4091 18.4039H38.4006V24.6595H28.4091V18.4039ZM33.4057 2.04998C33.8221 2.04998 34.2149 2.21276 34.5092 2.50606C34.8049 2.80278 34.9677 3.19545 34.9677 3.61203V6.89618C34.946 6.8959 34.9247 6.89454 34.9028 6.89454H31.9069C31.8852 6.89454 31.8637 6.8959 31.842 6.89618V3.61217C31.842 2.75071 32.5435 2.04998 33.4057 2.04998ZM2.05011 22.2067C2.05011 18.9205 3.57936 15.8839 6.13312 13.9305V24.6596H2.05011V22.2067ZM63.8432 24.6595V13.9329C64.8793 14.7256 65.7547 15.7024 66.4273 16.8165C67.0374 17.871 67.5021 18.9414 67.729 20.1362C67.83 21.6421 67.8922 23.1518 67.9282 24.6595H63.8432Z" fill="white"/>
<path d="M47.4368 53.8757C43.3094 53.7375 39.1213 53.6675 34.9889 53.6675C27.5033 53.6675 19.9191 53.8974 12.4461 54.3506C9.67381 54.3427 7.06716 53.2589 5.10397 51.2972C3.13463 49.3263 2.05011 46.7079 2.05011 43.9243V35.9794C2.05011 35.4133 1.59116 34.9543 1.02506 34.9543C0.458952 34.9543 0 35.4133 0 35.9794V43.9243C0 47.2552 1.29772 50.3883 3.6544 52.7467C6.01244 55.103 9.14543 56.4007 12.4765 56.4007C12.4972 56.4007 12.5179 56.4002 12.5386 56.3988C19.9806 55.9467 27.534 55.7175 34.9889 55.7175C39.0986 55.7175 43.2636 55.7872 47.3682 55.9244C47.9372 55.9442 48.408 55.5001 48.427 54.9342C48.4459 54.3685 48.0025 53.8945 47.4368 53.8757Z" fill="white"/>
<path d="M25.8516 38.8989V37.0398C25.8516 36.4737 25.3926 36.0148 24.8265 36.0148C24.2604 36.0148 23.8015 36.4737 23.8015 37.0398V38.8989C23.8015 39.465 24.2604 39.9239 24.8265 39.9239C25.3926 39.9239 25.8516 39.465 25.8516 38.8989Z" fill="white"/>
<path d="M34.9882 41.1332C36.3112 41.1332 37.5693 40.5602 38.4401 39.5611C38.8121 39.1343 38.7677 38.4869 38.3407 38.1149C37.9139 37.7427 37.2666 37.7873 36.8944 38.2141C36.413 38.7663 35.7182 39.0831 34.9881 39.0831C34.2578 39.0831 33.563 38.7664 33.0817 38.2142C32.7099 37.7874 32.0623 37.7428 31.6355 38.1149C31.2086 38.4868 31.1642 39.1343 31.5361 39.5611C32.407 40.5601 33.6652 41.1332 34.9882 41.1332Z" fill="white"/>
<path d="M45.5088 35.6676C43.7557 35.6676 42.3294 37.0938 42.3294 38.8469C42.3294 39.413 42.7882 39.872 43.3544 39.872C43.9207 39.872 44.3795 39.413 44.3795 38.8469C44.3795 38.2242 44.8861 37.7177 45.5088 37.7177C46.1315 37.7177 46.6382 38.2244 46.6382 38.8469C46.6382 39.413 47.097 39.872 47.6632 39.872C48.2295 39.872 48.6883 39.413 48.6883 38.8469C48.6883 37.0939 47.262 35.6676 45.5088 35.6676Z" fill="white"/>
</svg>
