<svg width="308" height="55" viewBox="0 0 308 55" fill="none" xmlns="http://www.w3.org/2000/svg">
<path d="M6.73978 42.6186V54.1383H0V21.4393H12.7596C15.2195 21.4393 17.3794 21.8893 19.2394 22.7893C21.0993 23.6893 22.5393 24.9692 23.5392 26.6192C24.5392 28.2691 25.0392 30.159 25.0392 32.269C25.0392 35.4689 23.9392 37.9988 21.7493 39.8487C19.5594 41.6987 16.5195 42.6186 12.6396 42.6186H6.72978H6.73978ZM6.73978 37.1588H12.7596C14.5395 37.1588 15.8995 36.7388 16.8395 35.8989C17.7794 35.0589 18.2394 33.8589 18.2394 32.309C18.2394 30.759 17.7694 29.4091 16.8195 28.4191C15.8695 27.4291 14.5695 26.9192 12.9096 26.8892H6.72978V37.1488L6.73978 37.1588Z" fill="#F28A25"/>
<path d="M44.1385 47.3985H32.3289L30.079 54.1383H22.9092L35.0788 21.4393H41.3186L53.5583 54.1383H46.3885L44.1186 47.3985H44.1385ZM34.1389 41.9387H42.3186L38.2087 29.6991L34.1389 41.9387Z" fill="#F28A25"/>
<path d="M76.3075 39.9687H63.368V48.7284H78.5475V54.1383H56.6282V21.4393H78.5075V26.8992H63.368V34.6889H76.3075V39.9687Z" fill="#F28A25"/>
<path d="M99.4568 45.5586C99.4568 44.2886 99.0068 43.3086 98.1068 42.6287C97.2069 41.9487 95.5869 41.2287 93.257 40.4687C90.9171 39.7088 89.0671 38.9688 87.7072 38.2388C83.9973 36.2289 82.1373 33.529 82.1373 30.1291C82.1373 28.3591 82.6373 26.7892 83.6273 25.3992C84.6273 24.0193 86.0572 22.9293 87.9172 22.1493C89.7771 21.3694 91.877 20.9794 94.197 20.9794C96.5169 20.9794 98.6168 21.3994 100.437 22.2493C102.267 23.0993 103.687 24.2893 104.697 25.8292C105.707 27.3692 106.217 29.1191 106.217 31.089H99.4768C99.4768 29.5891 99.0068 28.4291 98.0568 27.5992C97.1069 26.7692 95.7869 26.3492 94.077 26.3492C92.367 26.3492 91.147 26.6992 90.2371 27.3892C89.3271 28.0891 88.8671 28.9991 88.8671 30.1391C88.8671 31.199 89.4071 32.089 90.4771 32.809C91.547 33.529 93.127 34.1989 95.2069 34.8289C99.0368 35.9789 101.837 37.4088 103.587 39.1188C105.337 40.8287 106.217 42.9487 106.217 45.4986C106.217 48.3285 105.147 50.5484 103.007 52.1584C100.867 53.7683 97.9868 54.5683 94.3569 54.5683C91.837 54.5683 89.5471 54.1083 87.4872 53.1883C85.4272 52.2684 83.8473 51.0084 82.7573 49.4084C81.6674 47.8085 81.1274 45.9486 81.1274 43.8386H87.8872C87.8872 47.4485 90.0471 49.2485 94.3569 49.2485C95.9569 49.2485 97.2069 48.9185 98.1068 48.2685C99.0068 47.6185 99.4568 46.7085 99.4568 45.5386V45.5586Z" fill="#F28A25"/>
<path d="M130.456 39.9687H117.516V48.7284H132.696V54.1383H110.776V21.4393H132.656V26.8992H117.516V34.6889H130.456V39.9687Z" fill="#6277B9"/>
<path d="M156.325 40.7687H143.385V54.1283H136.646V21.4393H157.935V26.8992H143.385V35.3489H156.325V40.7887V40.7687Z" fill="#6277B9"/>
<path d="M186.604 21.4393V42.9786C186.604 46.5585 185.484 49.3884 183.244 51.4684C181.004 53.5483 177.944 54.5883 174.064 54.5883C170.184 54.5883 167.215 53.5783 164.965 51.5584C162.715 49.5384 161.575 46.7585 161.525 43.2286V21.4393H168.265V43.0186C168.265 45.1586 168.775 46.7185 169.805 47.6985C170.834 48.6784 172.244 49.1684 174.064 49.1684C177.854 49.1684 179.774 47.1785 179.834 43.1986V21.4393H186.594H186.604Z" fill="#6277B9"/>
<path d="M209.083 45.5586C209.083 44.2886 208.633 43.3086 207.733 42.6287C206.833 41.9487 205.213 41.2287 202.883 40.4687C200.543 39.7088 198.694 38.9688 197.334 38.2388C193.624 36.2289 191.764 33.529 191.764 30.1291C191.764 28.3591 192.264 26.7892 193.254 25.3992C194.254 24.0193 195.684 22.9293 197.544 22.1493C199.403 21.3694 201.503 20.9794 203.823 20.9794C206.143 20.9794 208.243 21.3994 210.063 22.2493C211.893 23.0993 213.313 24.2893 214.323 25.8292C215.333 27.3692 215.843 29.1191 215.843 31.089H209.103C209.103 29.5891 208.633 28.4291 207.683 27.5992C206.733 26.7692 205.413 26.3492 203.703 26.3492C201.993 26.3492 200.773 26.6992 199.863 27.3892C198.954 28.0791 198.494 28.9991 198.494 30.1391C198.494 31.199 199.034 32.089 200.103 32.809C201.173 33.529 202.753 34.1989 204.833 34.8289C208.663 35.9789 211.463 37.4088 213.213 39.1188C214.963 40.8287 215.843 42.9487 215.843 45.4986C215.843 48.3285 214.773 50.5484 212.633 52.1584C210.493 53.7683 207.613 54.5683 203.983 54.5683C201.463 54.5683 199.174 54.1083 197.114 53.1883C195.054 52.2684 193.474 51.0084 192.384 49.4084C191.294 47.8085 190.754 45.9486 190.754 43.8386H197.514C197.514 47.4485 199.673 49.2485 203.983 49.2485C205.583 49.2485 206.833 48.9185 207.733 48.2685C208.633 47.6185 209.083 46.7085 209.083 45.5386V45.5586Z" fill="#6277B9"/>
<path d="M238.872 47.3985H227.063L224.813 54.1383H217.643L229.813 21.4393H236.052L248.292 54.1383H241.122L238.852 47.3985H238.872ZM228.873 41.9387H237.052L232.942 29.6991L228.873 41.9387Z" fill="#6277B9"/>
<path d="M276.561 43.2487C276.311 46.7686 275.011 49.5385 272.661 51.5584C270.321 53.5783 267.231 54.5883 263.401 54.5883C259.212 54.5883 255.912 53.1783 253.512 50.3584C251.112 47.5385 249.902 43.6587 249.902 38.7388V36.7389C249.902 33.599 250.452 30.8291 251.562 28.4291C252.672 26.0292 254.252 24.1993 256.312 22.9193C258.372 21.6394 260.761 20.9994 263.491 20.9994C267.261 20.9994 270.301 22.0094 272.611 24.0293C274.921 26.0492 276.251 28.8891 276.611 32.539H269.871C269.701 30.4291 269.121 28.8991 268.111 27.9492C267.101 26.9992 265.561 26.5192 263.491 26.5192C261.241 26.5192 259.562 27.3292 258.452 28.9291C257.332 30.5391 256.762 33.039 256.732 36.4189V38.8888C256.732 42.4187 257.272 45.0086 258.342 46.6386C259.412 48.2685 261.101 49.0885 263.411 49.0885C265.491 49.0885 267.041 48.6085 268.071 47.6585C269.101 46.7086 269.681 45.2386 269.831 43.2487H276.571H276.561Z" fill="#6277B9"/>
<path d="M307.6 54.1383H300.86V40.1187H287.721V54.1383H280.981V21.4393H287.721V34.6889H300.86V21.4393H307.6V54.1383Z" fill="#6277B9"/>
<path d="M55.2482 7.95973V12.9696H53.5582V0.169983H58.2781C59.678 0.169983 60.778 0.529971 61.568 1.23995C62.3579 1.94992 62.7579 2.89989 62.7579 4.07986C62.7579 5.31982 62.3679 6.27978 61.598 6.94976C60.828 7.61974 59.708 7.95973 58.2581 7.95973H55.2482ZM55.2482 6.57977H58.2781C59.178 6.57977 59.868 6.36978 60.348 5.9398C60.828 5.50981 61.068 4.89983 61.068 4.09986C61.068 3.29988 60.828 2.7299 60.348 2.26991C59.868 1.80993 59.208 1.56994 58.3681 1.55994H55.2382V6.58977L55.2482 6.57977Z" fill="white"/>
<path d="M72.3176 7.78974H69.3077V12.9696H67.6077V0.169983H71.8476C73.2875 0.169983 74.3975 0.499972 75.1775 1.14995C75.9575 1.79993 76.3374 2.7599 76.3374 4.01986C76.3374 4.81983 76.1175 5.50981 75.6875 6.09979C75.2575 6.68977 74.6575 7.12976 73.8875 7.42975L76.8974 12.8596V12.9696H75.0875L72.3076 7.78974H72.3176ZM69.3077 6.40978H71.8976C72.7376 6.40978 73.3975 6.18979 73.8975 5.7598C74.3975 5.32981 74.6375 4.73983 74.6375 4.01986C74.6375 3.22988 74.3975 2.6199 73.9275 2.19992C73.4575 1.77993 72.7776 1.55994 71.8876 1.55994H69.3077V6.41978V6.40978Z" fill="white"/>
<path d="M88.637 7.05977H83.0872V11.5996H89.527V12.9796H81.3973V0.179993H89.437V1.55995H83.0872V5.67981H88.637V7.05977Z" fill="white"/>
<path d="M103.337 0.169983V8.8697C103.337 10.0797 102.947 11.0596 102.197 11.8296C101.447 12.5996 100.427 13.0296 99.1367 13.1196L98.6867 13.1396C97.2868 13.1396 96.1668 12.7596 95.3369 12.0096C94.5069 11.2596 94.0869 10.2097 94.0669 8.8897V0.169983H95.7368V8.8397C95.7368 9.76967 95.9868 10.4896 96.4968 10.9996C97.0068 11.5096 97.7368 11.7696 98.6767 11.7696C99.6167 11.7696 100.367 11.5196 100.867 11.0096C101.367 10.4996 101.627 9.77967 101.627 8.8597V0.189983H103.327L103.337 0.169983Z" fill="white"/>
<path d="M118.536 12.9696H116.836L110.396 3.10989V12.9696H108.696V0.169983H110.396L116.856 10.0797V0.169983H118.536V12.9696Z" fill="white"/>
<path d="M126.046 12.9696H124.356V0.169983H126.046V12.9696Z" fill="white"/>
<path d="M136.066 10.7296L139.725 0.169983H141.575L136.825 12.9696H135.336L130.596 0.169983H132.436L136.076 10.7296H136.066Z" fill="white"/>
<path d="M153.215 7.05977H147.665V11.5996H154.105V12.9796H145.975V0.179993H154.015V1.55995H147.665V5.67981H153.215V7.05977Z" fill="white"/>
<path d="M163.605 7.78974H160.595V12.9696H158.895V0.169983H163.135C164.575 0.169983 165.685 0.499972 166.465 1.14995C167.245 1.79993 167.634 2.7599 167.634 4.01986C167.634 4.81983 167.414 5.50981 166.985 6.09979C166.555 6.68977 165.955 7.12976 165.185 7.42975L168.194 12.8596V12.9696H166.385L163.605 7.78974ZM160.595 6.40978H163.185C164.025 6.40978 164.685 6.18979 165.185 5.7598C165.685 5.32981 165.925 4.73983 165.925 4.01986C165.925 3.22988 165.685 2.6199 165.215 2.19992C164.745 1.77993 164.065 1.55994 163.175 1.55994H160.595V6.41978V6.40978Z" fill="white"/>
<path d="M176.464 7.26976C175.014 6.84978 173.964 6.33979 173.304 5.73981C172.644 5.13983 172.314 4.38986 172.314 3.48989C172.314 2.47992 172.714 1.64995 173.524 0.989968C174.334 0.329989 175.374 0 176.664 0C177.544 0 178.324 0.169995 179.014 0.509984C179.704 0.849973 180.234 1.31996 180.614 1.91994C180.994 2.51992 181.184 3.1699 181.184 3.87987H179.484C179.484 3.0999 179.234 2.48992 178.744 2.04993C178.254 1.60995 177.554 1.37996 176.664 1.37996C175.834 1.37996 175.184 1.55995 174.714 1.92994C174.244 2.29993 174.014 2.80991 174.014 3.45989C174.014 3.97987 174.234 4.41986 174.674 4.78984C175.114 5.15983 175.874 5.47982 176.934 5.77981C177.994 6.0798 178.834 6.40979 179.434 6.76978C180.034 7.12977 180.484 7.54976 180.774 8.02974C181.064 8.50972 181.204 9.0797 181.204 9.72968C181.204 10.7696 180.804 11.5996 179.994 12.2196C179.184 12.8396 178.104 13.1596 176.754 13.1596C175.874 13.1596 175.054 12.9896 174.294 12.6496C173.534 12.3096 172.944 11.8496 172.534 11.2696C172.124 10.6897 171.914 10.0197 171.914 9.2697H173.614C173.614 10.0397 173.904 10.6497 174.474 11.0996C175.044 11.5496 175.804 11.7696 176.764 11.7696C177.654 11.7696 178.334 11.5896 178.814 11.2296C179.294 10.8696 179.524 10.3697 179.524 9.73969C179.524 9.1097 179.304 8.62972 178.864 8.28973C178.424 7.94974 177.624 7.60975 176.474 7.26976H176.464Z" fill="white"/>
<path d="M187.884 12.9696H186.194V0.169983H187.884V12.9696Z" fill="white"/>
<path d="M202.253 1.54994H198.144V12.9696H196.464V1.54994H192.364V0.169983H202.263V1.54994H202.253Z" fill="white"/>
<path d="M213.223 9.61967H207.863L206.663 12.9696H204.923L209.813 0.169983H211.293L216.193 12.9696H214.463L213.243 9.61967H213.223ZM208.373 8.23972H212.723L210.543 2.24992L208.373 8.23972Z" fill="white"/>
<path d="M225.293 7.78974H222.283V12.9696H220.583V0.169983H224.823C226.263 0.169983 227.373 0.499972 228.153 1.14995C228.932 1.79993 229.322 2.7599 229.322 4.01986C229.322 4.81983 229.102 5.50981 228.672 6.09979C228.243 6.68977 227.643 7.12976 226.873 7.42975L229.882 12.8596V12.9696H228.073L225.293 7.78974ZM222.283 6.40978H224.873C225.713 6.40978 226.373 6.18979 226.873 5.7598C227.373 5.32981 227.613 4.73983 227.613 4.01986C227.613 3.22988 227.373 2.6199 226.903 2.19992C226.433 1.77993 225.753 1.55994 224.863 1.55994H222.283V6.41978V6.40978Z" fill="white"/>
<path d="M236.192 12.9696H234.502V0.169983H236.192V12.9696Z" fill="white"/>
<path d="M251.822 6.98977C251.822 8.23973 251.612 9.3397 251.192 10.2697C250.772 11.1996 250.172 11.9196 249.402 12.4096C248.632 12.8996 247.722 13.1496 246.692 13.1496C245.662 13.1496 244.792 12.8996 244.012 12.4096C243.232 11.9196 242.632 11.2096 242.202 10.2897C241.772 9.3697 241.552 8.30973 241.542 7.09977V6.1798C241.542 4.94984 241.752 3.85987 242.182 2.9199C242.612 1.97994 243.212 1.24996 244.002 0.749976C244.792 0.249992 245.682 0 246.682 0C247.682 0 248.612 0.249992 249.392 0.739976C250.172 1.22996 250.772 1.94994 251.202 2.88991C251.632 3.82988 251.832 4.91984 251.832 6.1698V6.97977L251.822 6.98977ZM250.142 6.1598C250.142 4.63985 249.842 3.47989 249.232 2.66991C248.622 1.85994 247.772 1.44995 246.672 1.44995C245.572 1.44995 244.762 1.85994 244.152 2.66991C243.542 3.47989 243.222 4.60985 243.202 6.0498V6.98977C243.202 8.45972 243.512 9.61969 244.132 10.4597C244.752 11.2996 245.602 11.7196 246.682 11.7196C247.762 11.7196 248.612 11.3196 249.212 10.5297C249.812 9.73968 250.122 8.59972 250.132 7.11977V6.1698L250.142 6.1598Z" fill="white"/>
</svg>
