<svg width="75" height="104" viewBox="0 0 75 104" fill="none" xmlns="http://www.w3.org/2000/svg">
<path d="M63.3234 14.3629C63.5388 13.8079 63.6614 13.2067 63.6614 12.5756C63.6614 9.84332 61.4465 7.62842 58.7142 7.62842C56.8159 7.62842 55.1694 8.69887 54.3398 10.2677C53.6526 9.90632 52.8715 9.69931 52.0411 9.69931C49.3826 9.69931 47.2199 11.7982 47.1049 14.4285C47.0045 14.4529 46.9063 14.4827 46.8087 14.5139C48.9214 16.8134 50.1634 19.864 50.1794 23.0453H62.6258C65.0303 23.0453 66.9978 21.0778 66.9978 18.6733C66.998 16.5066 65.3987 14.7001 63.3234 14.3629Z" fill="#C8EFFE"/>
<path d="M49.7452 19.2367C49.8602 16.6064 52.0227 14.5075 54.6815 14.5075C55.2411 14.5075 55.7781 14.6015 56.2793 14.7733C56.6937 14.9155 57.1424 14.7555 57.4064 14.4059C58.309 13.2101 59.7409 12.4366 61.3546 12.4366C62.1802 12.4366 62.958 12.64 63.6425 12.9977C63.6547 12.8585 63.6617 12.718 63.6617 12.5756C63.6617 9.84332 61.4468 7.62842 58.7144 7.62842C56.8162 7.62842 55.1697 8.69887 54.34 10.2677C53.6528 9.90632 52.8718 9.69931 52.0413 9.69931C49.3828 9.69931 47.2201 11.7982 47.1051 14.4285C47.0047 14.4529 46.9065 14.4827 46.8089 14.5139C48.0656 15.8818 49.011 17.5165 49.5768 19.2851C49.6328 19.2685 49.6882 19.2505 49.7452 19.2367Z" fill="#99E6FC"/>
<path d="M57.374 28.8422C56.4437 31.3973 55.3311 32.5099 52.776 33.4402C52.1666 33.662 52.1666 34.5182 52.776 34.74C55.3311 35.6703 56.4437 36.7829 57.374 39.3381C57.5958 39.9475 58.452 39.9475 58.6738 39.3381C59.6041 36.7829 60.7167 35.6703 63.2719 34.74C63.8813 34.5182 63.8813 33.662 63.2719 33.4402C60.7167 32.5099 59.6041 31.3973 58.6738 28.8422C58.452 28.2329 57.5958 28.2329 57.374 28.8422Z" fill="#FFD15B"/>
<path d="M37.5446 10.4705C30.9837 10.4705 26.0859 15.2681 25.0938 20.9741C26.0307 21.8744 26.6147 23.139 26.6147 24.5409C26.6147 25.1719 26.4919 25.7732 26.2767 26.3282C28.352 26.6654 29.9512 28.4719 29.9512 30.6388C29.9512 31.6948 29.5716 32.6663 28.9424 33.4241L31.7557 38.2967H43.3338L48.4721 29.3971C53.3285 20.9851 47.2578 10.4705 37.5446 10.4705Z" fill="#FFD15B"/>
<path d="M41.0148 10.9422C39.9251 10.636 38.7637 10.4702 37.5448 10.4702C30.9841 10.4702 26.0861 15.2678 25.0941 20.9739C26.0309 21.8741 26.6149 23.1388 26.6149 24.5407C26.6149 25.1717 26.4921 25.7729 26.2769 26.3279C28.3522 26.6651 29.9515 28.4716 29.9515 30.6385C29.9515 31.6946 29.5719 32.666 28.9426 33.4239L31.756 38.2965H38.6961L33.5578 29.3969C29.3102 22.0407 33.4202 13.0763 41.0148 10.9422Z" fill="#FFC344"/>
<path d="M26.2768 26.328C26.4922 25.773 26.6148 25.1718 26.6148 24.5407C26.6148 21.8084 24.3999 19.5935 21.6676 19.5935C19.7693 19.5935 18.1228 20.664 17.2932 22.2328C16.6059 21.8714 15.8249 21.6644 14.9945 21.6644C12.3357 21.6644 10.1733 23.7633 10.0582 26.3936C8.14456 26.8584 6.71069 28.5871 6.71069 30.6384C6.71069 33.0429 8.67818 35.0104 11.0827 35.0104H25.5792C27.9837 35.0104 29.9511 33.0429 29.9511 30.6384C29.9513 28.4717 28.3521 26.6652 26.2768 26.328Z" fill="#C8EFFE"/>
<path d="M14.2386 30.9961C14.5646 30.8687 14.7988 30.5782 14.8554 30.2328C15.24 27.8845 17.2737 26.0916 19.7311 26.0916C20.2907 26.0916 20.8277 26.1856 21.3289 26.3575C21.7433 26.4997 22.192 26.3397 22.456 25.99C23.3586 24.7942 24.7903 24.0208 26.4042 24.0208C26.466 24.0208 26.5272 24.0232 26.5884 24.0254C26.3305 21.5354 24.2261 19.5938 21.6679 19.5938C19.7697 19.5938 18.1232 20.6642 17.2935 22.2331C16.6063 21.8717 15.8253 21.6646 14.9948 21.6646C12.3361 21.6646 10.1736 23.7635 10.0586 26.3939C8.03992 26.8841 6.55545 28.7806 6.72426 30.9789C6.90027 33.2722 8.87856 35.0108 11.1787 35.0108H11.4499C11.4727 33.187 12.6265 31.6265 14.2386 30.9961Z" fill="#99E6FC"/>
<path d="M46.7418 44.2142V39.5206C46.7418 38.8444 46.1935 38.2961 45.5171 38.2961H29.5722C28.8959 38.2961 28.3477 38.8444 28.3477 39.5206V44.2142H46.7418Z" fill="#E1D3CE"/>
<path d="M36.2795 38.2961H29.5722C28.8959 38.2961 28.3477 38.8444 28.3477 39.5206V44.2142H35.055V39.5206C35.055 38.8444 35.6032 38.2961 36.2795 38.2961Z" fill="#CDBFBA"/>
<path d="M37.5446 27.8589C40.2499 27.8589 42.4429 25.6659 42.4429 22.9607C42.4429 20.2555 40.2499 18.0625 37.5446 18.0625C34.8394 18.0625 32.6464 20.2555 32.6464 22.9607C32.6464 25.6659 34.8394 27.8589 37.5446 27.8589Z" fill="white"/>
<path d="M36.8524 22.9607C36.8524 21.0082 37.995 19.3232 39.6477 18.5361C39.0105 18.2327 38.2977 18.0625 37.5448 18.0625C34.8395 18.0625 32.6466 20.2554 32.6466 22.9607C32.6466 25.6658 34.8397 27.8589 37.5448 27.8589C38.2977 27.8589 39.0105 27.6887 39.6477 27.3853C37.9948 26.5983 36.8524 24.9132 36.8524 22.9607Z" fill="#F9F3F1"/>
<path d="M60.0617 85.3208H43.2727V87.2353C43.2727 90.3986 40.7082 92.9631 37.5449 92.9631C34.3815 92.9631 31.817 90.3986 31.817 87.2353V85.3208H15.0281C9.80202 85.3208 5.56543 89.5574 5.56543 94.7834V99.8313C5.56543 100.886 6.42027 101.741 7.47472 101.741H67.615C68.6695 101.741 69.5243 100.886 69.5243 99.8313V94.7834C69.5241 89.5572 65.2877 85.3208 60.0617 85.3208Z" fill="#05E39C"/>
<path d="M17.4475 99.8313V94.7834C17.4475 89.5574 21.6841 85.3208 26.9102 85.3208H15.0278C9.80178 85.3208 5.56519 89.5574 5.56519 94.7834V99.8313C5.56519 100.886 6.42002 101.741 7.47447 101.741H19.3568C18.3024 101.741 17.4475 100.886 17.4475 99.8313Z" fill="#0ED290"/>
<path d="M39.5305 82.3205H35.5589C34.2633 82.3205 33.0096 82.1437 31.817 81.8188V87.2351C31.817 90.3984 34.3815 92.963 37.5448 92.963C40.7082 92.963 43.2727 90.3984 43.2727 87.2351V81.8188C42.0798 82.1437 40.8262 82.3205 39.5305 82.3205Z" fill="#FFB09E"/>
<path d="M36.8484 87.2351V82.3205H35.5589C34.2633 82.3205 33.0096 82.1437 31.817 81.8188V87.2351C31.817 90.3984 34.3815 92.963 37.5448 92.963C38.4475 92.963 39.3011 92.7535 40.0605 92.3815C38.1584 91.4499 36.8484 89.4958 36.8484 87.2351Z" fill="#F89580"/>
<path d="M16.3506 47.2152V61.001C17.1977 60.3348 18.2653 59.9362 19.4268 59.9362H21.3515V56.3642C21.3515 53.7577 23.4646 51.6446 26.0711 51.6446H49.0183C51.6248 51.6446 53.7379 53.7577 53.7379 56.3642V59.9362H55.6626C56.8241 59.9362 57.8915 60.3348 58.7388 61.001V47.2152C58.7388 45.5583 57.3955 44.2151 55.7386 44.2151H19.351C17.6939 44.2151 16.3506 45.5583 16.3506 47.2152Z" fill="#766E6E"/>
<path d="M26.4618 47.2152C26.4618 45.5583 27.805 44.2151 29.4619 44.2151H19.3508C17.694 44.2151 16.3507 45.5583 16.3507 47.2152V61.001C17.1977 60.3348 18.2654 59.9362 19.4268 59.9362H21.3515V56.3642C21.3515 53.7577 23.4646 51.6446 26.0712 51.6446H26.462V47.2152H26.4618Z" fill="#5B5555"/>
<path d="M21.3515 68.1137V59.9363H19.4268C16.6757 59.9363 14.4456 62.1664 14.4456 64.9175V67.3382C14.4456 70.0893 16.6757 72.3194 19.4268 72.3194H21.9847C21.5735 70.9904 21.3515 69.5779 21.3515 68.1137Z" fill="#F89580"/>
<path d="M55.6626 59.9365H53.7379V68.1139C53.7379 69.5782 53.5159 70.9904 53.1047 72.3195H55.6626C58.4137 72.3195 60.6438 70.0894 60.6438 67.3383V64.9175C60.6438 62.1666 58.4135 59.9365 55.6626 59.9365Z" fill="#FFB09E"/>
<path d="M39.5305 82.3212H35.5589C27.7123 82.3212 21.3514 75.9603 21.3514 68.1137V56.3644C21.3514 53.7579 23.4645 51.6448 26.0711 51.6448H49.0183C51.6248 51.6448 53.7379 53.7579 53.7379 56.3644V68.1137C53.7379 75.9603 47.377 82.3212 39.5305 82.3212Z" fill="#FFCEBF"/>
<path d="M28.0631 68.1137V56.3644C28.0631 53.7579 30.176 51.6448 32.7828 51.6448H26.0711C23.4645 51.6448 21.3514 53.7577 21.3514 56.3644V68.1137C21.3514 75.9603 27.7123 82.3212 35.5589 82.3212H39.5305C39.9929 82.3212 40.4495 82.2972 40.9005 82.2542C33.697 81.5645 28.0631 75.4981 28.0631 68.1137Z" fill="#FFB09E"/>
<path d="M31.1262 70.6392C31.1262 73.7491 33.6473 76.2704 36.7575 76.2704H38.3317C41.4417 76.2704 43.963 73.7493 43.963 70.6392H31.1262Z" fill="#FD9468"/>
<path d="M35.6482 70.6392H31.1262C31.1262 73.7493 33.6473 76.2704 36.7575 76.2704H38.3317C38.842 76.2704 39.3358 76.2014 39.8056 76.0742C37.4107 75.4262 35.6482 73.2391 35.6482 70.6392Z" fill="#FE7D43"/>
<path d="M20.8353 2.79301C19.905 5.34812 18.7924 6.46077 16.2373 7.39102C15.6279 7.61283 15.6279 8.46907 16.2373 8.69088C18.7924 9.62112 19.905 10.7338 20.8353 13.2889C21.0571 13.8983 21.9133 13.8983 22.1351 13.2889C23.0654 10.7338 24.178 9.62112 26.7332 8.69088C27.3426 8.46907 27.3426 7.61283 26.7332 7.39102C24.178 6.46077 23.0654 5.34812 22.1351 2.79301C21.9131 2.18358 21.0571 2.18358 20.8353 2.79301Z" fill="#FFD15B"/>
<path d="M6.40369 41.9837C7.23233 41.9837 7.90376 41.3123 7.90376 40.4837V39.4378C7.90376 38.6092 7.23233 37.9377 6.40369 37.9377C5.57506 37.9377 4.90363 38.6092 4.90363 39.4378V40.4837C4.90363 41.3123 5.57526 41.9837 6.40369 41.9837Z" fill="black"/>
<path d="M6.40369 49.7752C7.23233 49.7752 7.90376 49.1038 7.90376 48.2752V47.2293C7.90376 46.4007 7.23233 45.7292 6.40369 45.7292C5.57506 45.7292 4.90363 46.4007 4.90363 47.2293V48.2752C4.90363 49.1036 5.57526 49.7752 6.40369 49.7752Z" fill="black"/>
<path d="M4.55599 43.8812C4.55599 43.0525 3.88456 42.3811 3.05592 42.3811H2.01008C1.18144 42.3811 0.51001 43.0525 0.51001 43.8812C0.51001 44.7098 1.18144 45.3812 2.01008 45.3812H3.05592C3.88456 45.3812 4.55599 44.7096 4.55599 43.8812Z" fill="black"/>
<path d="M10.8473 45.3812C11.6759 45.3812 12.3474 44.7098 12.3474 43.8812C12.3474 43.0525 11.6759 42.3811 10.8473 42.3811H9.80146C8.97282 42.3811 8.30139 43.0525 8.30139 43.8812C8.30139 44.7098 8.97282 45.3812 9.80146 45.3812H10.8473Z" fill="black"/>
<path d="M66.9434 42.2008V43.2466C66.9434 44.0752 67.6148 44.7467 68.4434 44.7467C69.2721 44.7467 69.9435 44.0752 69.9435 43.2466V42.2008C69.9435 41.3721 69.2721 40.7007 68.4434 40.7007C67.6148 40.7007 66.9434 41.3723 66.9434 42.2008Z" fill="black"/>
<path d="M68.4434 48.4922C67.6148 48.4922 66.9434 49.1636 66.9434 49.9923V51.0381C66.9434 51.8667 67.6148 52.5382 68.4434 52.5382C69.2721 52.5382 69.9435 51.8667 69.9435 51.0381V49.9923C69.9435 49.1636 69.2719 48.4922 68.4434 48.4922Z" fill="black"/>
<path d="M64.0498 48.1444H65.0956C65.9242 48.1444 66.5957 47.473 66.5957 46.6444C66.5957 45.8157 65.9242 45.1443 65.0956 45.1443H64.0498C63.2211 45.1443 62.5497 45.8157 62.5497 46.6444C62.5497 47.473 63.2211 48.1444 64.0498 48.1444Z" fill="black"/>
<path d="M72.8871 45.1443H71.8413C71.0126 45.1443 70.3412 45.8157 70.3412 46.6444C70.3412 47.473 71.0126 48.1444 71.8413 48.1444H72.8871C73.7157 48.1444 74.3872 47.473 74.3872 46.6444C74.3872 45.8157 73.7155 45.1443 72.8871 45.1443Z" fill="black"/>
<path d="M65.229 34.0903C65.229 33.1585 64.6622 32.3503 63.7849 32.0306C61.6546 31.255 60.859 30.4596 60.0834 28.3289C59.7638 27.4518 58.9555 26.885 58.0237 26.885C57.092 26.885 56.2838 27.4518 55.9642 28.3289V28.3291C55.1885 30.4594 54.3931 31.255 52.2624 32.0306C51.3854 32.3503 50.8185 33.1585 50.8185 34.0903C50.8185 35.022 51.3854 35.8302 52.2626 36.1498C54.3927 36.9253 55.1885 37.7207 55.9644 39.8516C56.2838 40.7286 57.0922 41.2953 58.0237 41.2953C58.9553 41.2953 59.7638 40.7286 60.0834 39.8514C60.859 37.7209 61.6546 36.9253 63.7851 36.1498C64.6622 35.8302 65.229 35.022 65.229 34.0903ZM58.7837 29.3553C58.7835 29.3555 58.7835 29.3557 58.7835 29.3557C58.7835 29.3557 58.7835 29.3555 58.7837 29.3553ZM58.0239 37.1077C57.2888 35.7584 56.3558 34.8254 55.0065 34.0901C56.3558 33.3549 57.2888 32.4219 58.0239 31.0728C58.7591 32.4219 59.6922 33.3551 61.0414 34.0901C59.692 34.8252 58.7591 35.7582 58.0239 37.1077Z" fill="black"/>
<path d="M60.0616 83.8206H57.6493C56.8207 83.8206 56.1493 84.492 56.1493 85.3207C56.1493 86.1493 56.8207 86.8207 57.6493 86.8207H60.0616C64.452 86.8207 68.0242 90.3927 68.0242 94.7835V99.8313C68.0242 100.057 67.8406 100.241 67.615 100.241H7.47446C7.24885 100.241 7.06544 100.057 7.06544 99.8313V94.7835C7.06544 90.3929 10.6374 86.8207 15.028 86.8207H30.3169V87.2351C30.3169 91.2207 33.5592 94.4633 37.5448 94.4633C41.5304 94.4633 44.7728 91.2207 44.7728 87.2351V86.8207H50.649C51.4777 86.8207 52.1491 86.1493 52.1491 85.3207C52.1491 84.492 51.4777 83.8206 50.649 83.8206H44.7726V82.9179C49.0669 81.3929 52.5045 78.0501 54.1606 73.8189H55.6624C59.2362 73.8189 62.1437 70.9116 62.1437 67.3378V64.9171C62.1437 63.1278 61.4149 61.5058 60.2387 60.3319V47.2149C60.2387 44.7336 58.2198 42.7147 55.7385 42.7147H48.2419V39.5214C48.2419 38.1539 47.2283 37.0217 45.9134 36.8289L49.771 30.1472C50.791 28.3805 51.4021 26.4766 51.6067 24.5455H53.2491C54.0778 24.5455 54.7492 23.8741 54.7492 23.0454C54.7492 22.2168 54.0778 21.5454 53.2491 21.5454H51.5969C51.3835 19.6437 50.776 17.77 49.7712 16.0295C49.4238 15.4279 49.0377 14.8605 48.6193 14.327C48.7813 12.5608 50.2508 11.1995 52.0413 11.1995C52.6037 11.1995 53.1419 11.3327 53.6414 11.5955C54.3738 11.9809 55.2792 11.6999 55.6658 10.9691C56.2661 9.83383 57.4341 9.1286 58.7142 9.1286C60.6149 9.1286 62.1611 10.6749 62.1611 12.5756C62.1611 12.997 62.0817 13.4158 61.9247 13.8204C61.7611 14.242 61.7965 14.7155 62.0213 15.1081C62.2459 15.5009 62.636 15.7709 63.0828 15.8437C64.4594 16.0673 65.4975 17.2838 65.4975 18.6734C65.4975 20.2571 64.2092 21.5454 62.6258 21.5454H60.2495C59.4208 21.5454 58.7494 22.2168 58.7494 23.0454C58.7494 23.8741 59.4208 24.5455 60.2495 24.5455H62.626C65.8637 24.5455 68.4978 21.9112 68.4978 18.6734C68.4978 16.3805 67.1198 14.3184 65.1123 13.3654C65.1449 13.1038 65.1613 12.8404 65.1613 12.5758C65.1613 9.02079 62.2691 6.12866 58.7142 6.12866C56.7793 6.12866 54.9818 6.9887 53.7714 8.43757C53.2089 8.28056 52.6255 8.19956 52.0413 8.19956C49.4592 8.19956 47.2303 9.71043 46.204 11.9151C43.7799 10.025 40.769 8.97079 37.5448 8.97079C31.3971 8.97079 26.0731 12.9088 24.1582 18.5948C23.3916 18.2726 22.5501 18.094 21.6679 18.094C19.7328 18.094 17.9355 18.954 16.7249 20.4029C16.1625 20.2459 15.579 20.1649 14.995 20.1649C11.8955 20.1649 9.30315 22.3406 8.69072 25.2813C6.59862 26.2114 5.21116 28.2863 5.21116 30.639C5.21116 33.8767 7.84528 36.5108 11.083 36.5108H15.0474C15.876 36.5108 16.5475 35.8394 16.5475 35.0108C16.5475 34.1821 15.876 33.5107 15.0474 33.5107H11.0828C9.49935 33.5107 8.2111 32.2224 8.2111 30.639C8.2111 29.3339 9.13694 28.1615 10.4128 27.8517C11.0616 27.694 11.5282 27.1264 11.5574 26.4594C11.6381 24.6121 13.1479 23.1648 14.995 23.1648C15.5574 23.1648 16.0957 23.298 16.5953 23.5607C17.3273 23.9457 18.233 23.6655 18.6196 22.9342C19.2198 21.799 20.3878 21.0939 21.6679 21.0939C23.5686 21.0939 25.1149 22.6402 25.1149 24.5409C25.1149 24.9623 25.0355 25.3811 24.8785 25.7858C24.7148 26.2074 24.7502 26.6808 24.9751 27.0734C25.1997 27.4662 25.5897 27.7362 26.0365 27.809C27.4132 28.0327 28.4512 29.2491 28.4512 30.6388C28.4512 32.2222 27.163 33.5105 25.5795 33.5105H22.0477C21.2191 33.5105 20.5477 34.1819 20.5477 35.0106C20.5477 35.8392 21.2191 36.5106 22.0477 36.5106H25.5793C26.6549 36.5106 27.663 36.2186 28.531 35.7116L29.176 36.8287C27.8612 37.0217 26.8475 38.1537 26.8475 39.5212V42.7145H19.351C16.8697 42.7145 14.8508 44.7334 14.8508 47.2147V60.3317C13.6745 61.5058 12.9457 63.1278 12.9457 64.9171V67.3378C12.9457 70.9116 15.853 73.8189 19.4268 73.8189H20.9289C22.5847 78.0501 26.0225 81.3929 30.3169 82.9179V83.8206H15.028C8.98313 83.8206 4.06531 88.7384 4.06531 94.7835V99.8313C4.06531 101.711 5.59458 103.241 7.47446 103.241H67.6148C69.4947 103.241 71.0241 101.711 71.0241 99.8313V94.7835C71.0241 88.7384 66.1063 83.8206 60.0616 83.8206ZM59.1438 67.3378C59.1438 69.2573 57.5821 70.8188 55.6626 70.8188H55C55.1534 69.9392 55.238 69.0361 55.238 68.1133V61.436H55.6626C57.5823 61.436 59.1438 62.9976 59.1438 64.9171V67.3378ZM37.5446 26.3592C35.6709 26.3592 34.1465 24.8347 34.1465 22.961C34.1465 21.0873 35.6709 19.5629 37.5446 19.5629C39.4183 19.5629 40.9428 21.0873 40.9428 22.961C40.9428 24.8347 39.4185 26.3592 37.5446 26.3592ZM28.0658 25.3307C28.0984 25.0691 28.1148 24.8057 28.1148 24.5411C28.1148 23.0306 27.5914 21.641 26.7181 20.5409C27.7824 16.1751 31.7054 11.9709 37.5446 11.9709C41.5638 11.9709 45.1632 14.049 47.1729 17.5298C49.1824 21.0103 49.1826 25.1665 47.1729 28.6473L42.4678 36.7969H39.0449V29.1803C41.8514 28.5033 43.9431 25.9728 43.9431 22.9612C43.9431 19.4331 41.0728 16.5629 37.5448 16.5629C34.0169 16.5629 31.1465 19.4333 31.1465 22.9612C31.1465 25.9728 33.2382 28.5033 36.0448 29.1803V36.7969H32.6218L30.7115 33.4881C31.1821 32.6437 31.4515 31.6724 31.4515 30.639C31.4513 28.3459 30.0733 26.2836 28.0658 25.3307ZM29.8477 39.7968H45.2418V42.7147H29.8477V39.7968ZM17.8509 47.2149C17.8509 46.3877 18.5238 45.7149 19.351 45.7149H28.3438C28.345 45.7149 28.3464 45.7151 28.3476 45.7151H46.7418C46.7432 45.7151 46.7444 45.7149 46.7456 45.7149H55.7385C56.5657 45.7149 57.2385 46.3877 57.2385 47.2149V58.6306C56.7337 58.504 56.2059 58.4358 55.6624 58.4358H55.2378V56.3639C55.2378 52.9346 52.4477 50.1443 49.0181 50.1443H26.0711C22.6418 50.1443 19.8514 52.9344 19.8514 56.3639V58.4358H19.4266C18.8832 58.4358 18.3556 58.504 17.8507 58.6304V47.2149H17.8509ZM19.4268 70.8188C17.5073 70.8188 15.9458 69.2571 15.9458 67.3378V64.9171C15.9458 62.9974 17.5075 61.436 19.4268 61.436H19.8516V68.1133C19.8516 69.0361 19.9362 69.9392 20.0896 70.8188H19.4268ZM22.8518 68.1133V56.3639C22.8518 54.5887 24.296 53.1444 26.0713 53.1444H49.0183C50.7936 53.1444 52.2379 54.5887 52.2379 56.3639V68.1133C52.2379 75.1202 46.5374 80.8206 39.5307 80.8206H35.5591C28.5522 80.8206 22.8518 75.1202 22.8518 68.1133ZM35.5589 83.8208H39.5305C40.2918 83.8208 41.0398 83.7634 41.7724 83.6582V87.2351C41.7724 89.5665 39.8759 91.4631 37.5446 91.4631C35.2133 91.4631 33.3168 89.5667 33.3168 87.2351V83.6582C34.0497 83.7634 34.7975 83.8208 35.5589 83.8208Z" fill="black"/>
<path d="M38.3319 77.7706C42.2641 77.7706 45.463 74.5714 45.463 70.6392C45.463 69.8106 44.7916 69.1392 43.963 69.1392H31.1262C30.2975 69.1392 29.6261 69.8106 29.6261 70.6392C29.6261 74.5714 32.8252 77.7706 36.7574 77.7706H38.3319ZM32.9082 72.1393H42.1811C41.5794 73.6778 40.0808 74.7704 38.3319 74.7704H36.7576C35.0085 74.7704 33.5099 73.6778 32.9082 72.1393Z" fill="black"/>
<path d="M31.5436 62.228V59.3704C31.5436 58.5418 30.8722 57.8704 30.0435 57.8704C29.2149 57.8704 28.5435 58.5418 28.5435 59.3704V62.228C28.5435 63.0566 29.2149 63.728 30.0435 63.728C30.8722 63.728 31.5436 63.0566 31.5436 62.228Z" fill="black"/>
<path d="M44.5696 63.728C45.3982 63.728 46.0697 63.0566 46.0697 62.228V59.3704C46.0697 58.5418 45.3982 57.8704 44.5696 57.8704C43.7409 57.8704 43.0695 58.5418 43.0695 59.3704V62.228C43.0695 63.0566 43.7411 63.728 44.5696 63.728Z" fill="black"/>
<path d="M36.2706 67.6213C36.4172 67.6665 36.5658 67.6879 36.7118 67.6879C37.3531 67.6879 37.9469 67.2733 38.1451 66.6281C38.3885 65.8363 37.9439 64.997 37.1518 64.7536C36.9738 64.699 36.7824 64.5186 36.7824 64.2522C36.7824 63.9634 37.0176 63.7282 37.3064 63.7282C38.1351 63.7282 38.8065 63.0567 38.8065 62.2281C38.8065 61.3995 38.1351 60.728 37.3064 60.728C35.3632 60.728 33.7823 62.3089 33.7823 64.2522C33.7825 65.8099 34.7823 67.1639 36.2706 67.6213Z" fill="black"/>
<path d="M15.724 10.1004C17.8541 10.876 18.65 11.6714 19.4256 13.8021C19.7452 14.6792 20.5535 15.246 21.4851 15.246C22.4169 15.246 23.2252 14.6792 23.5448 13.8021C24.3204 11.6716 25.1161 10.876 27.2462 10.1004C28.1234 9.78114 28.6902 8.97291 28.6904 8.04127C28.6906 7.10942 28.1238 6.30099 27.2464 5.98137C25.1163 5.20574 24.3204 4.4103 23.5448 2.2796C23.2252 1.40276 22.4169 0.835938 21.4851 0.835938C20.5535 0.835938 19.7452 1.40276 19.4256 2.2798C18.65 4.4103 17.8543 5.20594 15.7238 5.98157C14.8466 6.30119 14.2798 7.10962 14.28 8.04146C14.2802 8.97311 14.847 9.78134 15.724 10.1004ZM21.4853 5.02373C22.2205 6.37299 23.1532 7.30583 24.5024 8.04106C23.1532 8.7763 22.2205 9.70914 21.4851 11.0584C20.7501 9.70914 19.817 8.7763 18.468 8.04106C19.8172 7.30583 20.7499 6.37299 21.4853 5.02373Z" fill="black"/>
</svg>
