<svg width="112" height="96" viewBox="0 0 112 96" fill="none" xmlns="http://www.w3.org/2000/svg">
<path d="M9.54265 84.2329V29.4353H3.81419C2.61043 29.4353 1.63465 30.4111 1.63465 31.6148V92.1409C1.63465 93.3447 2.61043 94.3205 3.81419 94.3205H80.9797C82.1835 94.3205 83.1592 93.3447 83.1592 92.1409V86.4125H11.7222C10.5184 86.4125 9.54265 85.4367 9.54265 84.2329Z" fill="#9E9797"/>
<path d="M20.4837 78.2865C19.4022 78.2865 18.5221 77.4064 18.5221 76.325V21.698L18.3042 21.5273H11.7222C10.5184 21.5273 9.54266 22.5031 9.54266 23.7069V84.233C9.54266 85.4367 10.5184 86.4125 11.7222 86.4125H88.8877C90.0915 86.4125 91.0673 85.4367 91.0673 84.233V78.5045L90.7889 78.2865H20.4837Z" fill="#B9ACAC"/>
<path d="M95.422 48.0922C94.8202 48.0922 94.3322 47.6042 94.3322 47.0024V38.2208C94.3322 37.6191 94.8202 37.1311 95.422 37.1311H99.8288V30.7525H67.5675C66.9657 30.7525 66.4777 30.2645 66.4777 29.6627V13.6191H20.4837C19.2799 13.6191 18.3042 14.5949 18.3042 15.7987V62.5338H99.8288V48.0922H95.422Z" fill="#C8EFFE"/>
<path d="M32.2471 13.6191H20.4837C19.2799 13.6191 18.3042 14.5949 18.3042 15.7987V62.5338H30.0675V15.7987C30.0675 14.5949 31.0435 13.6191 32.2471 13.6191Z" fill="#99E6FC"/>
<path d="M65.0669 37.6277L53.0575 30.694C52.331 30.2746 51.4228 30.7988 51.4228 31.6377V45.5052C51.4228 46.3441 52.331 46.8685 53.0575 46.449L65.0669 39.5152C65.7934 39.0959 65.7934 38.0473 65.0669 37.6277Z" fill="#08A9F1"/>
<path d="M56.6459 32.7658L53.0575 30.694C52.331 30.2746 51.4228 30.7988 51.4228 31.6377V45.5052C51.4228 46.3441 52.331 46.8685 53.0575 46.449L56.6459 44.3771V32.7658Z" fill="#0290CF"/>
<path d="M88.2177 30.7524H67.5677C66.966 30.7524 66.478 30.2645 66.478 29.6627V3.67937C66.478 3.0776 66.966 2.5896 67.5677 2.5896H84.5121C86.5587 2.5896 88.2177 4.24866 88.2177 6.29524V30.7524Z" fill="#FFE177"/>
<path d="M73.8862 29.6629V3.67937C73.8862 3.0776 74.3742 2.5896 74.976 2.5896H67.5675C66.9658 2.5896 66.4778 3.0776 66.4778 3.67937V29.6629C66.4778 30.2647 66.9658 30.7527 67.5675 30.7527H74.976C74.3742 30.7527 73.8862 30.2649 73.8862 29.6629Z" fill="#FFD15B"/>
<path d="M108.868 30.7524H88.2177V6.29524C88.2177 4.24866 89.8768 2.5896 91.9234 2.5896H108.868C109.469 2.5896 109.957 3.0776 109.957 3.67937V29.6629C109.957 30.2647 109.469 30.7524 108.868 30.7524Z" fill="#FFE177"/>
<path d="M99.2248 2.5896H91.9234C89.8768 2.5896 88.2177 4.24866 88.2177 6.29524V30.7527H95.5192V6.29546C95.5192 4.24888 97.1782 2.5896 99.2248 2.5896Z" fill="#FFD15B"/>
<path d="M20.4837 78.5045H97.6492C98.853 78.5045 99.8288 77.5287 99.8288 76.3249V62.5339H18.3042V76.3249C18.3042 77.5287 19.2799 78.5045 20.4837 78.5045Z" fill="#E1D3CE"/>
<path d="M30.0675 76.3249V62.5339H18.3042V76.3249C18.3042 77.5287 19.2799 78.5045 20.4837 78.5045H32.2471C31.0435 78.5045 30.0675 77.5287 30.0675 76.3249Z" fill="#CDBFBA"/>
<path d="M43.1321 73.6073C44.8375 73.6073 46.2201 72.2248 46.2201 70.5194C46.2201 68.8139 44.8375 67.4314 43.1321 67.4314C41.4267 67.4314 40.0441 68.8139 40.0441 70.5194C40.0441 72.2248 41.4267 73.6073 43.1321 73.6073Z" fill="#FD6930"/>
<path d="M104.204 48.0922H95.422C94.8202 48.0922 94.3322 47.6042 94.3322 47.0024V38.2209C94.3322 37.6191 94.8202 37.1311 95.422 37.1311H104.204C104.805 37.1311 105.293 37.6191 105.293 38.2209V47.0024C105.293 47.6044 104.805 48.0922 104.204 48.0922Z" fill="#08A9F1"/>
<path d="M87.8479 55.0887H81.6926C81.3315 55.0887 81.0388 54.796 81.0388 54.4348V48.2796C81.0388 47.9184 81.3315 47.6257 81.6926 47.6257H87.8479C88.209 47.6257 88.5017 47.9184 88.5017 48.2796V54.4348C88.5017 54.796 88.209 55.0887 87.8479 55.0887Z" fill="#08A9F1"/>
<path d="M65.8843 36.2122L53.8746 29.2786C53.0217 28.7861 52.0035 28.7861 51.1502 29.2784C50.2971 29.7708 49.788 30.6528 49.788 31.638V45.5053C49.788 46.4902 50.2971 47.3723 51.1502 47.8646C51.5767 48.1109 52.0444 48.234 52.5124 48.234C52.9801 48.234 53.4481 48.1109 53.8746 47.8646L65.884 40.9311C66.7371 40.4387 67.2462 39.5567 67.2462 38.5717C67.2465 37.5868 66.7373 36.7047 65.8843 36.2122ZM53.0573 44.5615V32.5817L63.4323 38.5715L53.0573 44.5615Z" fill="black"/>
<path d="M81.4239 8.86035H73.2716C72.3688 8.86035 71.6369 9.59224 71.6369 10.495C71.6369 11.3978 72.3688 12.1297 73.2716 12.1297H81.4239C82.3267 12.1297 83.0586 11.3978 83.0586 10.495C83.0586 9.59224 82.3267 8.86035 81.4239 8.86035Z" fill="black"/>
<path d="M81.4239 15.0364H73.2716C72.3688 15.0364 71.6369 15.7683 71.6369 16.671C71.6369 17.5738 72.3688 18.3057 73.2716 18.3057H81.4239C82.3267 18.3057 83.0586 17.5738 83.0586 16.671C83.0586 15.7683 82.3267 15.0364 81.4239 15.0364Z" fill="black"/>
<path d="M81.4239 21.2124H73.2716C72.3688 21.2124 71.6369 21.9443 71.6369 22.8471C71.6369 23.7498 72.3688 24.4817 73.2716 24.4817H81.4239C82.3267 24.4817 83.0586 23.7498 83.0586 22.8471C83.0586 21.9443 82.3267 21.2124 81.4239 21.2124Z" fill="black"/>
<path d="M109.957 16.3068C110.86 16.3068 111.592 15.5749 111.592 14.6722V3.67925C111.592 2.1769 110.37 0.954834 108.868 0.954834H91.9234C90.4851 0.954834 89.1787 1.5274 88.2175 2.45522C87.2563 1.5274 85.9501 0.954834 84.5119 0.954834H67.5675C66.0652 0.954834 64.8431 2.1769 64.8431 3.67925V11.9844H20.4837C18.3807 11.9844 16.6695 13.6955 16.6695 15.7985V19.8924H11.7222C9.61915 19.8924 7.908 21.6035 7.908 23.7066V27.8004H3.81418C1.71115 27.8004 0 29.5115 0 31.6146V92.1406C0 94.2437 1.71115 95.9548 3.81418 95.9548H80.9795C83.0825 95.9548 84.7937 94.2437 84.7937 92.1406V88.0468H88.8875C90.9905 88.0468 92.7017 86.3357 92.7017 84.2327V80.1388H97.6492C99.7523 80.1388 101.463 78.4277 101.463 76.3246V62.5336V49.7267H104.204C105.706 49.7267 106.928 48.5046 106.928 47.0023V38.2207C106.928 36.7184 105.706 35.4963 104.204 35.4963H101.463V32.387H108.868C110.37 32.387 111.592 31.1649 111.592 29.6626V22.3005C111.592 21.3978 110.86 20.6659 109.957 20.6659C109.055 20.6659 108.323 21.3978 108.323 22.3005V29.1179H89.8522V6.29535C89.8522 5.15327 90.7813 4.22435 91.9231 4.22435H108.323V14.6722C108.323 15.5749 109.055 16.3068 109.957 16.3068ZM68.1124 4.22435H84.5119C85.6537 4.22435 86.5829 5.15349 86.5829 6.29535V29.1179H68.1124V4.22435ZM98.1941 76.3249C98.1941 76.6252 97.9496 76.8697 97.6492 76.8697H81.0787C80.1759 76.8697 79.444 77.6016 79.444 78.5044C79.444 79.4072 80.1759 80.139 81.0787 80.139H89.4324V84.2329C89.4324 84.5332 89.1878 84.7777 88.8875 84.7777H11.7222C11.4218 84.7777 11.1773 84.5332 11.1773 84.2329V50.1986C11.1773 49.2958 10.4454 48.5639 9.54265 48.5639C8.63989 48.5639 7.908 49.2958 7.908 50.1986V84.2329C7.908 86.3359 9.61915 88.047 11.7222 88.047H81.5246V92.1409C81.5246 92.4412 81.28 92.6858 80.9797 92.6858H3.81418C3.51384 92.6858 3.2693 92.4412 3.2693 92.1409V31.6148C3.2693 31.3144 3.51384 31.0699 3.81418 31.0699H7.908V42.5702C7.908 43.473 8.63989 44.2048 9.54265 44.2048C10.4454 44.2048 11.1773 43.473 11.1773 42.5702V23.7068C11.1773 23.4064 11.4218 23.1619 11.7222 23.1619H16.6695V62.5339V76.3249C16.6695 78.4279 18.3807 80.139 20.4837 80.139H73.4503C74.3531 80.139 75.0849 79.4072 75.0849 78.5044C75.0849 77.6016 74.3531 76.8697 73.4503 76.8697H20.4837C20.1834 76.8697 19.9388 76.6252 19.9388 76.3249V64.1685H98.1941V76.3249ZM103.659 46.4576H95.9668V38.7658H103.659V46.4576ZM98.1941 32.3872V35.4965H95.422C93.9196 35.4965 92.6975 36.7186 92.6975 38.2209V47.0025C92.6975 48.5049 93.9196 49.7269 95.422 49.7269H98.1941V60.8992H19.9388V15.7988C19.9388 15.4984 20.1834 15.2539 20.4837 15.2539H64.8431V29.6628C64.8431 31.1651 66.0652 32.3872 67.5675 32.3872H88.2175H98.1941Z" fill="black"/>
<path d="M103.164 8.86035H95.0113C94.1086 8.86035 93.3767 9.59224 93.3767 10.495C93.3767 11.3978 94.1086 12.1297 95.0113 12.1297H103.164C104.067 12.1297 104.799 11.3978 104.799 10.495C104.799 9.59224 104.067 8.86035 103.164 8.86035Z" fill="black"/>
<path d="M103.164 15.0364H95.0113C94.1086 15.0364 93.3767 15.7683 93.3767 16.671C93.3767 17.5738 94.1086 18.3057 95.0113 18.3057H103.164C104.067 18.3057 104.799 17.5738 104.799 16.671C104.799 15.7683 104.067 15.0364 103.164 15.0364Z" fill="black"/>
<path d="M103.164 21.2124H95.0113C94.1086 21.2124 93.3767 21.9443 93.3767 22.8471C93.3767 23.7498 94.1086 24.4817 95.0113 24.4817H103.164C104.067 24.4817 104.799 23.7498 104.799 22.8471C104.799 21.9443 104.067 21.2124 103.164 21.2124Z" fill="black"/>
<path d="M26.9508 72.1539H38.7013C39.3678 73.9548 41.1023 75.2419 43.1321 75.2419C45.1619 75.2419 46.8964 73.9546 47.5629 72.1539H91.1821C92.0849 72.1539 92.8168 71.422 92.8168 70.5192C92.8168 69.6165 92.0849 68.8846 91.1821 68.8846H47.5629C46.8964 67.0836 45.1619 65.7966 43.1321 65.7966C41.1023 65.7966 39.3678 67.0839 38.7013 68.8846H26.9508C26.048 68.8846 25.3162 69.6165 25.3162 70.5192C25.3162 71.422 26.048 72.1539 26.9508 72.1539ZM43.1321 69.0657C43.9335 69.0657 44.5854 69.7178 44.5854 70.519C44.5854 71.3202 43.9333 71.9723 43.1321 71.9723C42.3309 71.9723 41.6788 71.3202 41.6788 70.519C41.6788 69.7178 42.3307 69.0657 43.1321 69.0657Z" fill="black"/>
<path d="M81.6926 45.9912C80.4307 45.9912 79.4041 47.0178 79.4041 48.2797V54.4349C79.4041 55.6969 80.4307 56.7235 81.6926 56.7235H87.8479C89.1098 56.7235 90.1364 55.6969 90.1364 54.4349V48.2797C90.1364 47.0178 89.1098 45.9912 87.8479 45.9912H81.6926ZM86.8671 53.4542H82.6734V49.2605H86.8671V53.4542Z" fill="black"/>
<path d="M25.7665 21.9754C26.6692 21.9754 27.4011 21.2435 27.4011 20.3407C27.4011 19.4379 26.6692 18.7061 25.7665 18.7061C24.8637 18.7061 24.1318 19.4379 24.1318 20.3407C24.1318 21.2435 24.8637 21.9754 25.7665 21.9754Z" fill="black"/>
<path d="M30.8971 21.9754C31.7999 21.9754 32.5317 21.2435 32.5317 20.3407C32.5317 19.4379 31.7999 18.7061 30.8971 18.7061C29.9943 18.7061 29.2624 19.4379 29.2624 20.3407C29.2624 21.2435 29.9943 21.9754 30.8971 21.9754Z" fill="black"/>
<path d="M36.0277 21.9754C36.9305 21.9754 37.6623 21.2435 37.6623 20.3407C37.6623 19.4379 36.9305 18.7061 36.0277 18.7061C35.1249 18.7061 34.393 19.4379 34.393 20.3407C34.393 21.2435 35.1249 21.9754 36.0277 21.9754Z" fill="black"/>
</svg>
