<svg width="111" height="96" viewBox="0 0 111 96" fill="none" xmlns="http://www.w3.org/2000/svg">
<path d="M12.5164 52.6006L12.5162 47.55C12.5162 42.665 16.2752 38.6602 21.0581 38.2644C22.877 39.6362 25.1403 40.4506 27.594 40.4506C30.0478 40.4506 32.3111 39.6365 34.1299 38.2644C38.9129 38.6605 42.6718 42.665 42.6718 47.55V52.767C45.7507 53.4132 48.1857 55.8682 48.8238 58.9393H61.853C62.6336 55.1427 66.1197 52.3334 70.2084 52.6185C73.7786 52.8673 76.7118 55.5225 77.4217 58.9393H90.4518C91.233 55.1388 94.7257 52.3276 98.8197 52.6194C101.393 52.8027 103.643 54.2357 104.959 56.3107C105.021 56.0511 105.058 55.7815 105.058 55.5026V6.01281C105.058 4.11462 103.519 2.57593 101.621 2.57593H9.05727C7.15909 2.57593 5.62039 4.11484 5.62039 6.01281V55.5026C5.62039 55.7802 5.65692 56.0489 5.71897 56.3074C7.14006 54.0606 9.65498 52.5744 12.5164 52.6006Z" fill="#F9F3F1"/>
<path d="M12.5164 52.6006L12.5162 47.55C12.5162 43.8783 14.6401 40.7046 17.7257 39.186V6.01281C17.7257 4.11462 19.2644 2.57593 21.1625 2.57593H9.05705C7.15909 2.57593 5.62039 4.11484 5.62039 6.01281V55.5026C5.62039 55.7802 5.65692 56.0489 5.71897 56.3074C7.14006 54.0606 9.65498 52.5744 12.5164 52.6006Z" fill="#EFE2DD"/>
<path d="M70.8898 15.9444V30.4183L83.4246 37.6552L95.9594 30.4183V15.9444L83.4246 8.70752L70.8898 15.9444Z" fill="#FFD15B"/>
<path d="M83.4246 8.70752L70.8898 15.9444L83.4246 23.1814L95.9594 15.9444L83.4246 8.70752Z" fill="#FE7D43"/>
<path d="M83.4246 23.1815V37.6553L95.9594 30.4184V15.9446L83.4246 23.1815Z" fill="#FFC344"/>
<path d="M13.0242 52.6196C16.9008 52.8959 20.0476 56.007 20.3638 59.8805C20.6362 63.2167 18.8463 66.1633 16.1323 67.5889C17.417 68.2074 18.588 69.1399 19.5934 70.3157C20.8844 67.6706 23.5995 65.8479 26.7408 65.8479C29.8822 65.8479 32.5975 67.6706 33.8885 70.3157C34.8939 69.1399 36.0649 68.2072 37.3496 67.5889C34.8182 66.2592 33.0906 63.6062 33.0906 60.5483C33.0906 55.9694 36.962 52.2945 41.6103 52.6187C41.9715 52.6438 42.3258 52.6946 42.6723 52.7672V47.5502C42.6723 42.6652 38.9133 38.6605 34.1304 38.2646C32.3115 39.6365 30.0482 40.4508 27.5945 40.4508C25.1407 40.4508 22.8774 39.6367 21.0586 38.2646C16.2756 38.6607 12.5167 42.6652 12.5167 47.5502V52.6008C12.6846 52.6023 12.8537 52.6075 13.0242 52.6196Z" fill="#01D0FB"/>
<path d="M13.0242 52.6196C16.9008 52.8959 20.0476 56.007 20.3638 59.8805C20.6362 63.2167 18.8463 66.1633 16.1323 67.5889C17.417 68.2074 18.588 69.1399 19.5934 70.3157V70.3159C20.0819 69.315 20.7748 68.4326 21.6172 67.7214V47.5502C21.6172 44.5558 23.0309 41.8939 25.2259 40.1896C23.6892 39.8474 22.2743 39.1816 21.0586 38.2646C16.2756 38.6607 12.5167 42.6652 12.5167 47.5502V52.6008C12.6846 52.6023 12.8537 52.6075 13.0242 52.6196Z" fill="#01C0FA"/>
<path d="M27.5943 40.4511C33.5951 40.4511 38.4598 35.5864 38.4598 29.5855C38.4598 23.5846 33.5951 18.72 27.5943 18.72C21.5934 18.72 16.7287 23.5846 16.7287 29.5855C16.7287 35.5864 21.5934 40.4511 27.5943 40.4511Z" fill="#01D0FB"/>
<path d="M23.9948 29.5855C23.9948 24.8592 27.0134 20.8395 31.2274 19.3445C30.0912 18.9413 28.8688 18.72 27.5945 18.72C21.5936 18.72 16.7289 23.5846 16.7289 29.5855C16.7289 35.5864 21.5936 40.4511 27.5945 40.4511C28.869 40.4511 30.0912 40.2297 31.2274 39.8265C27.0134 38.3315 23.9948 34.3118 23.9948 29.5855Z" fill="#01C0FA"/>
<path d="M101.928 67.589C104.642 66.1633 106.432 63.2165 106.159 59.8806C105.843 56.0073 102.696 52.8959 98.8198 52.6197C94.1661 52.2881 90.2876 55.9653 90.2876 60.5483C90.2876 63.6063 92.015 66.2593 94.5466 67.589C93.2619 68.2074 92.0909 69.14 91.0855 70.3157C91.5986 71.3674 91.8875 72.5486 91.8875 73.7976C91.8875 76.8555 90.16 79.5083 87.6285 80.8382C91.7869 82.8397 94.7582 88.1262 94.7582 94.3339H106.896C108.09 94.3339 109.058 93.3661 109.058 92.1722V81.0847C109.058 74.8771 106.087 69.5907 101.928 67.589Z" fill="#C8EFFE"/>
<path d="M98.7013 66.7066C96.9166 65.2492 95.7768 63.0326 95.7768 60.5486C95.7768 57.1238 97.9428 54.2057 100.979 53.0873C100.297 52.835 99.5727 52.6735 98.82 52.6199C94.1663 52.2883 90.2878 55.9656 90.2878 60.5486C90.2878 63.6065 92.0152 66.2596 94.5468 67.5892C93.2621 68.2077 92.0911 69.1402 91.0857 70.316C91.5989 71.3676 91.8877 72.5488 91.8877 73.7978C91.8877 76.8558 90.1603 79.5086 87.6287 80.8385C89.7943 81.8808 91.6365 83.8153 92.906 86.3054V81.0849C92.906 75.5938 95.2307 70.8236 98.6456 68.41C99.221 68.0034 99.2472 67.1523 98.7013 66.7066Z" fill="#99E6FC"/>
<path d="M80.2474 80.8382C77.716 79.5085 75.9884 76.8555 75.9884 73.7976C75.9884 72.5485 76.2772 71.3674 76.7904 70.3157C75.785 69.14 74.614 68.2072 73.3293 67.589C75.9586 66.2078 77.7206 63.3992 77.5805 60.1921C77.4056 56.1899 74.205 52.8974 70.2087 52.6188C65.5604 52.2947 61.689 55.9694 61.689 60.5483C61.689 63.6062 63.4164 66.2593 65.948 67.589C64.6633 68.2074 63.4923 69.14 62.4869 70.3157C63.0001 71.3674 63.2889 72.5485 63.2889 73.7976C63.2889 76.8555 61.5615 79.5083 59.0299 80.8382C63.1884 82.8397 66.1596 88.1261 66.1596 94.3339H73.1179C73.1179 88.1264 76.0889 82.8399 80.2474 80.8382Z" fill="#C8EFFE"/>
<path d="M72.3808 53.0873C71.6985 52.835 70.9741 52.6735 70.2214 52.6199C65.5677 52.2883 61.6892 55.9656 61.6892 60.5486C61.6892 63.6065 63.4166 66.2596 65.9482 67.5892C64.6635 68.2077 63.4925 69.1402 62.4871 70.316C63.0003 71.3676 63.2891 72.5488 63.2891 73.7978C63.2891 76.8558 61.5617 79.5086 59.0301 80.8385C61.1957 81.8808 63.0379 83.8153 64.3075 86.3054V81.0849C64.3075 75.5938 66.6322 70.8236 70.047 68.41C70.6224 68.0034 70.6486 67.1523 70.1028 66.7066C68.3181 65.2492 67.1782 63.0326 67.1782 60.5486C67.1782 57.1238 69.3442 54.2055 72.3808 53.0873Z" fill="#99E6FC"/>
<path d="M51.6488 80.8382C49.1175 79.5085 47.3898 76.8555 47.3898 73.7976C47.3898 72.5485 47.6786 71.3674 48.1918 70.3157C47.1864 69.14 46.0154 68.2072 44.7307 67.589C47.36 66.2078 49.122 63.3992 48.9819 60.1921C48.807 56.1899 45.6064 52.8974 41.6101 52.6188C36.9618 52.2947 33.0904 55.9694 33.0904 60.5483C33.0904 63.6062 34.8178 66.2593 37.3494 67.589C36.0647 68.2074 34.8937 69.14 33.8883 70.3157C34.4015 71.3674 34.6903 72.5485 34.6903 73.7976C34.6903 76.8555 32.9629 79.5083 30.4313 80.8382C34.5898 82.8397 37.561 88.1261 37.561 94.3339H44.5193C44.5193 88.1264 47.4904 82.8399 51.6488 80.8382Z" fill="#C8EFFE"/>
<path d="M43.7822 53.0873C43.0999 52.835 42.3756 52.6735 41.6229 52.6199C36.9692 52.2883 33.0906 55.9656 33.0906 60.5486C33.0906 63.6065 34.8181 66.2596 37.3496 67.5892C36.0649 68.2077 34.8939 69.1402 33.8885 70.316C34.4017 71.3676 34.6905 72.5488 34.6905 73.7978C34.6905 76.8558 32.9631 79.5086 30.4315 80.8385C32.5971 81.8808 34.4393 83.8153 35.7089 86.3054V81.0849C35.7089 75.5938 38.0336 70.8236 41.4484 68.41C42.0239 68.0034 42.05 67.1523 41.5042 66.7066C39.7195 65.2492 38.5796 63.0326 38.5796 60.5486C38.5794 57.1238 40.7454 54.2055 43.7822 53.0873Z" fill="#99E6FC"/>
<path d="M23.0502 80.838C20.5188 79.5083 18.7912 76.8553 18.7912 73.7973C18.7912 72.5483 19.08 71.3672 19.5932 70.3155C18.5878 69.1397 17.4168 68.207 16.1321 67.5887C18.8461 66.1631 20.6362 63.2163 20.3636 59.8803C20.0473 56.007 16.9006 52.8957 13.024 52.6194C8.3703 52.2878 4.49179 55.9651 4.49179 60.5481C4.49179 63.606 6.2192 66.2591 8.75076 67.5887C4.59231 69.5905 1.62128 74.8769 1.62128 81.0846V92.1722C1.62128 93.3661 2.58907 94.3339 3.78297 94.3339H15.9207C15.9207 88.1261 18.8917 82.8397 23.0502 80.838Z" fill="#C8EFFE"/>
<path d="M7.1101 92.1725V81.0849C7.1101 75.5938 9.43478 70.8238 12.8496 68.41C13.4251 68.0034 13.4512 67.1523 12.9054 66.7066C11.1207 65.2492 9.98083 63.0326 9.98083 60.5486C9.98083 57.1238 12.1468 54.2057 15.1834 53.0873C14.5011 52.835 13.7768 52.6735 13.0241 52.6199C8.37037 52.2883 4.49185 55.9656 4.49185 60.5486C4.49185 63.6065 6.21926 66.2596 8.75082 67.5892C4.59237 69.5907 1.62134 74.8772 1.62134 81.0849V92.1725C1.62134 93.3664 2.58913 94.3341 3.78303 94.3341H9.27179C8.0781 94.3341 7.1101 93.3661 7.1101 92.1725Z" fill="#99E6FC"/>
<path d="M30.4315 80.8382C32.9629 79.5085 34.6905 76.8555 34.6905 73.7975C34.6905 69.4071 31.1313 65.8479 26.7409 65.8479C22.3505 65.8479 18.7912 69.4069 18.7912 73.7975C18.7912 76.8555 20.5186 79.5083 23.0502 80.8382C18.8918 82.8397 15.9205 88.1261 15.9205 94.3338H37.561C37.561 88.1263 34.59 82.8399 30.4315 80.8382Z" fill="#99E6FC"/>
<path d="M27.117 81.6592C27.6925 81.2526 27.7186 80.4015 27.1728 79.9558C25.3881 78.4984 24.2482 76.2815 24.2482 73.7978C24.2482 70.3658 26.4229 67.4422 29.4694 66.3289C28.4192 65.9452 27.2657 65.7764 26.0619 65.8764C22.2238 66.1953 19.1306 69.2945 18.8187 73.133C18.5476 76.4677 20.3373 79.413 23.0507 80.8382C18.8922 82.8397 15.921 88.1261 15.921 94.3339H21.3777C21.3773 88.8429 23.702 84.0727 27.117 81.6592Z" fill="#62DBFB"/>
<path d="M59.0301 80.8382C61.5615 79.5085 63.2891 76.8555 63.2891 73.7975C63.2891 69.4071 59.7299 65.8479 55.3395 65.8479C50.9491 65.8479 47.3898 69.4069 47.3898 73.7975C47.3898 76.8555 49.1172 79.5083 51.6488 80.8382C47.4904 82.8397 44.5191 88.1261 44.5191 94.3338H66.1596C66.1596 88.1263 63.1886 82.8399 59.0301 80.8382Z" fill="#99E6FC"/>
<path d="M55.7156 81.6592C56.291 81.2526 56.3172 80.4015 55.7714 79.9558C53.9867 78.4984 52.8468 76.2815 52.8468 73.7978C52.8468 70.3658 55.0215 67.4422 58.068 66.3289C57.0178 65.9452 55.8643 65.7764 54.6605 65.8764C50.8224 66.1953 47.7292 69.2945 47.4173 73.133C47.1462 76.4677 48.9359 79.413 51.6492 80.8382C47.4908 82.8397 44.5195 88.1261 44.5195 94.3339H49.9763C49.9761 88.8429 52.3008 84.0727 55.7156 81.6592Z" fill="#62DBFB"/>
<path d="M87.6287 80.8382C90.16 79.5085 91.8876 76.8555 91.8876 73.7975C91.8876 69.4071 88.3284 65.8479 83.938 65.8479C79.5476 65.8479 75.9884 69.4069 75.9884 73.7975C75.9884 76.8555 77.7158 79.5083 80.2473 80.8382C76.0889 82.8397 73.1176 88.1261 73.1176 94.3338H94.7579C94.7582 88.1263 91.7871 82.8399 87.6287 80.8382Z" fill="#99E6FC"/>
<path d="M84.3142 81.6592C84.8896 81.2526 84.9158 80.4015 84.3699 79.9558C82.5853 78.4984 81.4454 76.2815 81.4454 73.7978C81.4454 70.3658 83.6201 67.4422 86.6665 66.3289C85.6164 65.9452 84.4629 65.7764 83.2591 65.8764C79.421 66.1953 76.3278 69.2945 76.0159 73.133C75.7448 76.4677 77.5345 79.413 80.2478 80.8382C76.0894 82.8397 73.1181 88.1261 73.1181 94.3339H78.5749C78.5747 88.8429 80.8993 84.0727 84.3142 81.6592Z" fill="#62DBFB"/>
<path d="M97.5806 30.4182V15.9441C97.5806 15.3648 97.2715 14.8298 96.77 14.5401L84.2352 7.30319C83.7337 7.01352 83.1154 7.01352 82.6139 7.30319L70.0791 14.5401C69.5776 14.8298 69.2685 15.3648 69.2685 15.9441V22.835H60.4215C59.5262 22.835 58.8003 23.5606 58.8003 24.4562C58.8003 25.3518 59.5262 26.0775 60.4215 26.0775H69.2685V30.4182C69.2685 30.9975 69.5776 31.5325 70.0791 31.8222L82.6139 39.0591C82.8647 39.204 83.1446 39.2764 83.4246 39.2764C83.7045 39.2764 83.9844 39.204 84.2352 39.0591L96.77 31.8222C97.2717 31.5328 97.5806 30.9975 97.5806 30.4182ZM81.8033 34.8471L72.511 29.4824V26.0777H74.5309C75.4263 26.0777 76.1522 25.352 76.1522 24.4564C76.1522 23.5609 75.4263 22.8352 74.5309 22.8352H72.511V18.7526L81.8033 24.1175V34.8471ZM83.4246 21.3092L74.1323 15.9443L83.4246 10.5795L92.7168 15.9441L83.4246 21.3092ZM94.3381 29.4822L85.0458 34.8469V24.1171L94.3381 18.7522V29.4822Z" fill="black"/>
<path d="M27.3619 36.3667H28.0821C30.3967 36.3667 32.2795 34.4839 32.2795 32.1694C32.2795 31.2738 31.5536 30.5481 30.6582 30.5481C29.7628 30.5481 29.037 31.2738 29.037 32.1694C29.037 32.696 28.6087 33.1242 28.0821 33.1242H27.3619C26.8353 33.1242 26.407 32.696 26.407 32.1694C26.407 31.2738 25.6811 30.5481 24.7858 30.5481C23.8904 30.5481 23.1645 31.2738 23.1645 32.1694C23.1645 34.4839 25.0473 36.3667 27.3619 36.3667Z" fill="black"/>
<path d="M26.1466 27.5141V26.1635C26.1466 25.2679 25.4207 24.5422 24.5253 24.5422C23.6299 24.5422 22.904 25.2679 22.904 26.1635V27.5141C22.904 28.4097 23.6299 29.1354 24.5253 29.1354C25.4207 29.1354 26.1466 28.4097 26.1466 27.5141Z" fill="black"/>
<path d="M32.2847 26.1635C32.2847 25.2679 31.5588 24.5422 30.6634 24.5422C29.768 24.5422 29.0421 25.2679 29.0421 26.1635V27.5141C29.0421 28.4097 29.768 29.1354 30.6634 29.1354C31.5588 29.1354 32.2847 28.4097 32.2847 27.5141V26.1635Z" fill="black"/>
<path d="M49.7175 28.6506C50.034 28.9671 50.449 29.1253 50.8638 29.1253C51.2787 29.1253 51.6937 28.9671 52.0102 28.6506L53.2979 27.3629L54.5856 28.6506C54.9021 28.9671 55.3171 29.1253 55.732 29.1253C56.1468 29.1253 56.5618 28.9671 56.8783 28.6506C57.5115 28.0172 57.5115 26.9909 56.8783 26.3577L55.5906 25.07L56.8783 23.7823C57.5115 23.1489 57.5115 22.1225 56.8783 21.4894C56.2454 20.8566 55.2188 20.8562 54.5856 21.4894L53.2979 22.7771L52.0102 21.4894C51.377 20.8564 50.3504 20.8564 49.7175 21.4894C49.0843 22.1227 49.0843 23.1491 49.7175 23.7823L51.0052 25.07L49.7175 26.3577C49.0843 26.9909 49.0843 28.0172 49.7175 28.6506Z" fill="black"/>
<path d="M68.1591 33.2515H50.864C49.9687 33.2515 49.2428 33.9771 49.2428 34.8727C49.2428 35.7683 49.9687 36.494 50.864 36.494H68.1591C69.0545 36.494 69.7804 35.7683 69.7804 34.8727C69.7804 33.9771 69.0545 33.2515 68.1591 33.2515Z" fill="black"/>
<path d="M58.879 41.017C58.879 41.9126 59.6049 42.6383 60.5002 42.6383H73.6209C74.5162 42.6383 75.2421 41.9126 75.2421 41.017C75.2421 40.1214 74.5162 39.3958 73.6209 39.3958H60.5002C59.6046 39.3958 58.879 40.1214 58.879 41.017Z" fill="black"/>
<path d="M50.8638 39.3958C49.9685 39.3958 49.2426 40.1214 49.2426 41.017C49.2426 41.9126 49.9685 42.6383 50.8638 42.6383H54.8701C55.7655 42.6383 56.4914 41.9126 56.4914 41.017C56.4914 40.1214 55.7655 39.3958 54.8701 39.3958H50.8638Z" fill="black"/>
<path d="M23.9034 9.00391C23.008 9.00391 22.2821 9.72959 22.2821 10.6252C22.2821 11.5208 23.008 12.2464 23.9034 12.2464H37.024C37.9194 12.2464 38.6453 11.5208 38.6453 10.6252C38.6453 9.72959 37.9194 9.00391 37.024 9.00391H23.9034Z" fill="black"/>
<path d="M14.2672 9.00391C13.3718 9.00391 12.6459 9.72959 12.6459 10.6252C12.6459 11.5208 13.3718 12.2464 14.2672 12.2464H18.2737C19.169 12.2464 19.8949 11.5208 19.8949 10.6252C19.8949 9.72959 19.169 9.00391 18.2737 9.00391H14.2672Z" fill="black"/>
<path d="M50.8638 48.7828H79.0316C79.9269 48.7828 80.6528 48.0571 80.6528 47.1616C80.6528 46.266 79.9269 45.5403 79.0316 45.5403H50.8638C49.9685 45.5403 49.2426 46.266 49.2426 47.1616C49.2426 48.0571 49.9685 48.7828 50.8638 48.7828Z" fill="black"/>
<path d="M85.1319 48.7828C86.0273 48.7828 86.7532 48.057 86.7532 47.1616C86.7532 46.2662 86.0273 45.5403 85.1319 45.5403C84.2365 45.5403 83.5106 46.2662 83.5106 47.1616C83.5106 48.057 84.2365 48.7828 85.1319 48.7828Z" fill="black"/>
<path d="M90.1362 48.7828C91.0316 48.7828 91.7575 48.057 91.7575 47.1616C91.7575 46.2662 91.0316 45.5403 90.1362 45.5403C89.2408 45.5403 88.5149 46.2662 88.5149 47.1616C88.5149 48.057 89.2408 48.7828 90.1362 48.7828Z" fill="black"/>
<path d="M95.1405 48.7828C96.0359 48.7828 96.7618 48.057 96.7618 47.1616C96.7618 46.2662 96.0359 45.5403 95.1405 45.5403C94.2451 45.5403 93.5192 46.2662 93.5192 47.1616C93.5192 48.057 94.2451 48.7828 95.1405 48.7828Z" fill="black"/>
<path d="M104.808 67.5067C106.891 65.5398 108.017 62.7045 107.775 59.7484C107.666 58.4051 107.27 57.1373 106.652 56.0039C106.668 55.8388 106.68 55.6721 106.68 55.5026V27.7026C106.68 26.807 105.954 26.0813 105.059 26.0813C104.163 26.0813 103.437 26.807 103.437 27.7026V52.5268C102.119 51.666 100.581 51.1196 98.9354 51.0022C96.2447 50.8109 93.6812 51.7129 91.7162 53.543C90.5906 54.5912 89.746 55.893 89.2339 57.3182H78.6511C77.4045 53.8256 74.1933 51.2711 70.3217 51.0013C67.6334 50.8139 65.0739 51.7181 63.1122 53.5478C61.9892 54.5951 61.1466 55.8952 60.6351 57.318H50.0523C49.0949 54.6353 46.9788 52.5063 44.2936 51.5411V47.5497C44.2936 42.9922 41.4228 38.9974 37.3591 37.3798C38.2864 36.2145 39.0166 34.869 39.4907 33.3833C39.7629 32.5303 39.292 31.618 38.439 31.3457C37.586 31.0746 36.6738 31.5445 36.4016 32.3973C35.1742 36.2443 31.6349 38.829 27.5943 38.829C22.497 38.829 18.35 34.682 18.35 29.5848C18.35 24.4875 22.497 20.3405 27.5943 20.3405C31.305 20.3405 34.6438 22.5465 36.1007 25.9605C36.4522 26.7841 37.4049 27.1662 38.2283 26.8154C39.0519 26.4639 39.4347 25.5115 39.0832 24.6879C37.1157 20.0772 32.6061 17.0979 27.5945 17.0979C20.7093 17.0979 15.1077 22.6995 15.1077 29.5848C15.1077 32.529 16.1342 35.2365 17.8452 37.3736C13.7732 38.9873 10.8952 42.9862 10.8952 47.5495V51.1016C9.59036 51.3113 8.35257 51.7882 7.24168 52.5117V6.01277C7.24168 5.01169 8.0562 4.19738 9.05707 4.19738H101.621C102.623 4.19738 103.437 5.0119 103.437 6.01277V20.1366C103.437 21.0322 104.163 21.7579 105.058 21.7579C105.954 21.7579 106.679 21.0322 106.679 20.1366V6.01277C106.679 3.22375 104.41 0.954834 101.621 0.954834H9.05707C6.26805 0.954834 3.99914 3.22375 3.99914 6.01277V55.5026C3.99914 55.6708 4.01038 55.8362 4.02659 56.0002C3.27864 57.3863 2.87073 58.9494 2.87073 60.548C2.87073 63.227 3.9786 65.7257 5.86965 67.5076C2.28361 70.38 0 75.5136 0 81.0843V92.1719C0 94.2577 1.69715 95.9548 3.78297 95.9548H25.508C26.4034 95.9548 27.1293 95.2292 27.1293 94.3336C27.1293 93.438 26.4034 92.7123 25.508 92.7123H17.6172C18.0592 87.9764 20.414 83.9062 23.7534 82.2988C24.3055 82.0331 24.6606 81.4788 24.6714 80.8664C24.6822 80.2538 24.3467 79.6877 23.8044 79.4027C21.7123 78.3037 20.4129 76.1559 20.4129 73.7972C20.4129 70.3078 23.2516 67.4691 26.741 67.4691C30.2304 67.4691 33.0694 70.3081 33.0694 73.7972C33.0694 76.1559 31.7698 78.3037 29.6777 79.4027C29.1353 79.6877 28.7998 80.254 28.8106 80.8664C28.8214 81.4788 29.1766 82.0331 29.7287 82.2988C33.0681 83.9062 35.4226 87.9764 35.8649 92.7123H33.0739C32.1786 92.7123 31.4527 93.438 31.4527 94.3336C31.4527 95.2292 32.1786 95.9548 33.0739 95.9548H106.896C108.982 95.9548 110.679 94.2577 110.679 92.1719V81.0843C110.679 75.513 108.395 70.3785 104.808 67.5067ZM79.2071 60.5608H88.6669C88.6703 63.2348 89.7774 65.7287 91.6654 67.5078C91.562 67.5906 91.4609 67.6766 91.3599 67.7631C89.6036 65.607 86.9293 64.2268 83.938 64.2268C80.9466 64.2268 78.2724 65.607 76.516 67.7631C76.4133 67.6751 76.3102 67.5878 76.2054 67.5037C78.0876 65.7177 79.2 63.2062 79.2071 60.5608ZM50.6085 60.5608H60.0681C60.0716 63.2348 61.1786 65.7287 63.0666 67.5078C62.9633 67.5906 62.8621 67.6766 62.7611 67.7631C61.0048 65.607 58.3305 64.2268 55.3392 64.2268C52.3478 64.2268 49.6738 65.607 47.9174 67.7631C47.8147 67.6751 47.7116 67.5878 47.6068 67.5037C49.489 65.7177 50.6014 63.2062 50.6085 60.5608ZM14.3647 92.7123H3.78297C3.48508 92.7123 3.24254 92.47 3.24254 92.1719V81.0843C3.24254 75.6743 5.73865 70.8379 9.45396 69.0495C10.0061 68.7838 10.3612 68.2296 10.372 67.6172C10.3828 67.0046 10.0473 66.4384 9.50497 66.1535C7.41288 65.0545 6.11349 62.9066 6.11349 60.548C6.11349 58.772 6.82966 57.1269 8.13013 55.9157C9.31453 54.8126 10.8297 54.2196 12.4386 54.2196C12.5947 54.2196 12.7516 54.2251 12.9092 54.2365C15.9868 54.4557 18.4972 56.9386 18.7482 60.0121C18.9559 62.5582 17.6334 64.9689 15.3785 66.1533C14.8361 66.4382 14.5006 67.0046 14.5115 67.617C14.5223 68.2294 14.8774 68.7836 15.4295 69.0493C16.2516 69.4451 17.0123 69.9929 17.701 70.6606C17.3588 71.644 17.1706 72.6987 17.1706 73.797C17.1706 76.476 18.2784 78.9747 20.1695 80.7566C16.9339 83.3478 14.7596 87.7797 14.3647 92.7123ZM26.7408 64.2266C23.7495 64.2266 21.0752 65.6068 19.3189 67.7629C19.2175 67.676 19.1157 67.5895 19.0121 67.5065C21.0949 65.5398 22.2209 62.7043 21.9797 59.7482C21.6271 55.4315 18.3316 51.8861 14.1377 51.1293V47.5497C14.1377 43.7676 16.9455 40.5329 20.6275 39.9479C20.631 39.9484 20.6342 39.9486 20.6377 39.949C22.6271 41.2886 25.0208 42.0716 27.5943 42.0716C30.1546 42.0716 32.5657 41.3031 34.5757 39.9505C38.2505 40.5417 41.0508 43.7726 41.0508 47.5497V50.9795C38.6113 50.9736 36.3106 51.8712 34.5132 53.5476C32.5785 55.3519 31.4689 57.9034 31.4689 60.5478C31.4689 63.2268 32.5767 65.7255 34.4678 67.5074C34.3647 67.5899 34.2633 67.6762 34.1623 67.7627C32.4062 65.6068 29.732 64.2266 26.7408 64.2266ZM39.1167 92.7123C38.722 87.7797 36.5476 83.3481 33.3128 80.7568C35.2036 78.9749 36.3117 76.476 36.3117 73.7972C36.3117 72.6985 36.1232 71.6436 35.7808 70.6598C36.4697 69.9925 37.2307 69.4451 38.0525 69.0495C38.6046 68.7838 38.9598 68.2296 38.9706 67.6172C38.9814 67.0046 38.6459 66.4384 38.1035 66.1535C36.0115 65.0545 34.7118 62.9066 34.7118 60.548C34.7118 58.7739 35.4269 57.1299 36.725 55.9192C38.0218 54.7095 39.717 54.1135 41.4974 54.2359C44.6481 54.4555 47.2242 57.1027 47.3621 60.2627C47.4704 62.7423 46.1732 64.9996 43.9767 66.1535C43.4343 66.4384 43.0988 67.0048 43.1096 67.6172C43.1204 68.2296 43.4756 68.7838 44.0277 69.0495C44.8498 69.4453 45.6105 69.9931 46.2992 70.6609C45.957 71.6442 45.7687 72.6989 45.7687 73.7972C45.7687 76.4762 46.8766 78.9749 48.7676 80.7568C45.5329 83.3478 43.3584 87.7797 42.9635 92.7123H39.1167ZM46.2157 92.7123C46.6578 87.9764 49.0125 83.9062 52.3519 82.2988C52.904 82.0331 53.2592 81.4788 53.27 80.8664C53.2806 80.2538 52.9453 79.6877 52.4029 79.4027C50.3109 78.3037 49.0115 76.1559 49.0115 73.7972C49.0115 70.3078 51.8502 67.4691 55.3396 67.4691C58.829 67.4691 61.6678 70.3081 61.6678 73.7972C61.6678 76.1559 60.3681 78.3037 58.2763 79.4027C57.7339 79.6877 57.3984 80.254 57.4092 80.8664C57.42 81.4788 57.7752 82.0331 58.3273 82.2988C61.6667 83.9062 64.0212 87.9764 64.4635 92.7123H46.2157ZM67.7153 92.7123C67.3206 87.7797 65.1461 83.3478 61.9112 80.7568C63.8022 78.9749 64.9101 76.476 64.9101 73.7972C64.9101 72.6989 64.7218 71.6442 64.3796 70.6609C65.0683 69.9931 65.829 69.4453 66.6511 69.0495C67.2032 68.7838 67.5584 68.2296 67.5692 67.6172C67.58 67.0046 67.2445 66.4384 66.7021 66.1535C64.61 65.0545 63.3106 62.9066 63.3106 60.548C63.3106 58.7739 64.0257 57.1299 65.3238 55.9192C66.6206 54.7095 68.3152 54.1135 70.0962 54.2359C73.2469 54.4555 75.8227 57.1027 75.9609 60.2627C76.0692 62.7423 74.7719 64.9996 72.5754 66.1535C72.0331 66.4384 71.6976 67.0048 71.7084 67.6172C71.7192 68.2296 72.0744 68.7838 72.6265 69.0495C73.4486 69.4453 74.2093 69.9931 74.898 70.6609C74.5558 71.6442 74.3675 72.6989 74.3675 73.7972C74.3675 76.4762 75.4754 78.9749 77.3664 80.7568C74.1317 83.3481 71.9572 87.7797 71.5623 92.7123H67.7153ZM74.8143 92.7123C75.2564 87.9764 77.6111 83.9062 80.9505 82.2988C81.5026 82.0331 81.8578 81.4788 81.8686 80.8664C81.8794 80.2538 81.5439 79.6877 81.0015 79.4027C78.9094 78.3037 77.6098 76.1559 77.6098 73.7972C77.6098 70.3078 80.4488 67.4691 83.9382 67.4691C87.4276 67.4691 90.2663 70.3081 90.2663 73.7972C90.2663 76.1559 88.9667 78.3037 86.8748 79.4027C86.3325 79.6877 85.997 80.254 86.0078 80.8664C86.0186 81.4788 86.3738 82.0331 86.9259 82.2988C90.2652 83.9062 92.6198 87.9764 93.062 92.7123H74.8143ZM107.436 92.1719C107.436 92.47 107.194 92.7123 106.896 92.7123H96.3141C95.9192 87.78 93.7447 83.3481 90.5099 80.7568C92.4008 78.9749 93.5089 76.476 93.5089 73.7972C93.5089 72.6989 93.3206 71.6442 92.9784 70.6609C93.6671 69.9931 94.4278 69.4453 95.2499 69.0495C95.802 68.7838 96.1572 68.2296 96.168 67.6172C96.1788 67.0046 95.8433 66.4384 95.3009 66.1535C93.2088 65.0545 91.9094 62.9066 91.9094 60.548C91.9094 58.772 92.6256 57.1269 93.9261 55.9157C95.2253 54.7056 96.9218 54.1079 98.7051 54.2365C101.783 54.4557 104.293 56.9386 104.544 60.0121C104.752 62.5582 103.429 64.9689 101.174 66.1533C100.632 66.4382 100.296 67.0046 100.307 67.617C100.318 68.2294 100.673 68.7836 101.225 69.0493C104.94 70.8379 107.436 75.6743 107.436 81.0843V92.1719Z" fill="black"/>
<path d="M45.6117 22.8395C46.5072 22.8395 47.233 22.1136 47.233 21.2182C47.233 20.3228 46.5072 19.5969 45.6117 19.5969C44.7163 19.5969 43.9905 20.3228 43.9905 21.2182C43.9905 22.1136 44.7163 22.8395 45.6117 22.8395Z" fill="black"/>
</svg>
