<svg width="105" height="103" viewBox="0 0 105 103" fill="none" xmlns="http://www.w3.org/2000/svg">
<path d="M21.7396 5.09766C13.089 5.09766 7.68236 14.4622 12.0076 21.9538L16.5837 29.8799H26.8952L31.4713 21.9538C35.7968 14.462 30.3901 5.09766 21.7396 5.09766Z" fill="#FFD15B"/>
<path d="M24.3867 5.40403C23.5463 5.20484 22.6616 5.09766 21.7396 5.09766C13.089 5.09766 7.68236 14.4622 12.0076 21.9538L16.5837 29.8799H21.8779L17.3018 21.9538C13.4376 15.2606 17.3418 7.07319 24.3867 5.40403Z" fill="#FFC344"/>
<path d="M17.0194 37.084V39.8565C17.0194 42.4634 19.1327 44.5769 21.7398 44.5769C24.3469 44.5769 26.4602 42.4634 26.4602 39.8565V37.084H17.0194Z" fill="#9E9797"/>
<path d="M21.1078 39.8565V37.084H17.0194V39.8565C17.0194 42.4634 19.1327 44.5769 21.7398 44.5769C22.4722 44.5769 23.1655 44.4101 23.784 44.1125C22.2005 43.3506 21.1078 41.7312 21.1078 39.8565Z" fill="#766E6E"/>
<path d="M28.84 37.0841H14.6393C14.0371 37.0841 13.5487 36.5958 13.5487 35.9935V30.97C13.5487 30.3677 14.0371 29.8794 14.6393 29.8794H28.84C29.4423 29.8794 29.9307 30.3677 29.9307 30.97V35.9935C29.9305 36.596 29.4423 37.0841 28.84 37.0841Z" fill="#E1D3CE"/>
<path d="M20.5055 35.9935V30.97C20.5055 30.3677 20.9938 29.8794 21.5961 29.8794H14.6393C14.0371 29.8794 13.5487 30.3677 13.5487 30.97V35.9935C13.5487 36.5958 14.0371 37.0841 14.6393 37.0841H21.5963C20.9938 37.0841 20.5055 36.596 20.5055 35.9935Z" fill="#CDBFBA"/>
<path d="M21.7396 20.5839C24.1489 20.5839 26.102 18.6308 26.102 16.2215C26.102 13.8122 24.1489 11.8591 21.7396 11.8591C19.3303 11.8591 17.3772 13.8122 17.3772 16.2215C17.3772 18.6308 19.3303 20.5839 21.7396 20.5839Z" fill="white"/>
<path d="M79.1147 90.2352V74.2889C79.1147 73.6317 79.6473 73.0991 80.3045 73.0991H84.9425V68.3113C83.576 65.1144 80.5718 62.7849 76.9828 62.3804C75.4546 63.3759 73.6314 63.9567 71.6716 63.9567H47.2494C45.2894 63.9567 43.4664 63.3761 41.9382 62.3804C37.9916 62.8251 34.7517 65.5972 33.6201 69.2915H46.6317C48.3622 69.2915 49.8432 70.5325 50.1461 72.2361L55.3339 101.417H85.7342V100.443C81.8337 98.6976 79.1147 94.7853 79.1147 90.2352Z" fill="#FD6930"/>
<path d="M65.0905 93.8022H53.9799L55.3337 101.417H67.4701V96.1819C67.4703 94.8677 66.4049 93.8022 65.0905 93.8022Z" fill="#CDBFBA"/>
<path d="M45.7251 69.2917C46.402 67.0844 47.8293 65.2056 49.7135 63.9569H47.2494C45.2894 63.9569 43.4664 63.3764 41.9382 62.3806C37.9916 62.8253 34.7517 65.5974 33.6201 69.2917H45.7251Z" fill="#FD5426"/>
<path d="M81.1351 54.3561V39.2107C81.1351 38.7602 81.2378 38.3348 81.4169 37.9522V33.9218C81.4169 21.7957 71.5866 11.9653 59.4604 11.9653C47.3342 11.9653 37.5039 21.7957 37.5039 33.9218V54.2116C37.5039 59.5937 41.8671 63.9569 47.2492 63.9569H71.6714C76.5404 63.9569 80.5748 60.386 81.3001 55.7203C81.1937 55.2826 81.1351 54.8264 81.1351 54.3561Z" fill="#766E6E"/>
<path d="M41.9448 36.8822H42.685V36.0904C42.685 34.9704 43.4393 33.9908 44.5224 33.705L46.2719 33.2431C46.5858 22.919 54.0222 14.3872 63.8369 12.4018C62.4227 12.1157 60.9593 11.9651 59.4606 11.9651C47.3344 11.9651 37.5041 21.7954 37.5041 33.9216V38.6702C38.6567 37.5638 40.2207 36.8822 41.9448 36.8822Z" fill="#5B5555"/>
<path d="M46.2567 54.2113V52.5282C45.5712 51.6542 44.9706 50.7111 44.4673 49.71C44.4673 49.7102 44.4675 49.7104 44.4675 49.7106H41.9448C40.2207 49.7106 38.6569 49.029 37.5042 47.9224V54.2113C37.5042 59.5934 41.8673 63.9566 47.2494 63.9566H56.002C50.6197 63.9566 46.2567 59.5934 46.2567 54.2113Z" fill="#5B5555"/>
<path d="M59.4604 58.9626C57.6519 58.9626 55.9116 58.6731 54.2798 58.1433V62.6631C54.2798 65.5243 56.5992 67.8437 59.4604 67.8437C62.3216 67.8437 64.6411 65.5243 64.6411 62.6631V58.1433C63.0092 58.6731 61.2691 58.9626 59.4604 58.9626Z" fill="#FFB09E"/>
<path d="M59.4299 62.6633V58.9623C57.6324 58.959 55.9026 58.6702 54.2798 58.1436V62.6633C54.2798 65.5246 56.5992 67.844 59.4604 67.844C60.3982 67.844 61.2767 67.5935 62.0356 67.1578C60.4791 66.2643 59.4299 64.5868 59.4299 62.6633Z" fill="#F89580"/>
<path d="M42.6848 42.1872V36.8823H41.9448C38.4023 36.8823 35.5304 39.754 35.5304 43.2967C35.5304 46.8393 38.4021 49.711 41.9448 49.711H44.4675C43.3293 47.4475 42.6848 44.8933 42.6848 42.1872Z" fill="#F89580"/>
<path d="M81.1351 39.2107C81.1351 38.9632 81.1687 38.7238 81.2257 38.4937C80.094 37.4918 78.6066 36.8823 76.9762 36.8823H76.2362V42.1872C76.2362 44.8933 75.5915 47.4475 74.4535 49.7108H76.9762C78.5636 49.7108 80.0151 49.1329 81.1351 48.1779V39.2107Z" fill="#FFB09E"/>
<path d="M68.3784 27.4074L44.5222 33.7051C43.4393 33.991 42.6848 34.9704 42.6848 36.0905V42.187C42.6848 51.4519 50.1955 58.9626 59.4604 58.9626C68.7253 58.9626 76.2361 51.4519 76.2361 42.187V34.1902C76.2361 30.8295 73.8703 28.0214 70.7134 27.3406C69.9422 27.1742 69.1411 27.2062 68.3784 27.4074Z" fill="#FFCEBF"/>
<path d="M50.675 42.1872V32.0811L44.522 33.7053C43.4391 33.9912 42.6846 34.9706 42.6846 36.0907V42.1872C42.6846 51.4521 50.1953 58.9629 59.4602 58.9629C60.8375 58.9629 62.1745 58.7934 63.4553 58.4802C56.1202 56.6875 50.675 50.075 50.675 42.1872Z" fill="#FFB09E"/>
<path d="M100.289 73.0994H95.6512V89.6205C95.6512 92.6276 93.1722 95.0557 90.1464 94.9727C87.23 94.8927 84.9426 92.4266 84.9426 89.509V73.0994H80.3046C79.6474 73.0994 79.1147 73.632 79.1147 74.2892V90.2355C79.1147 96.4113 84.1212 101.418 90.297 101.418C96.4728 101.418 101.479 96.4113 101.479 90.2355V74.2892C101.479 73.632 100.946 73.0994 100.289 73.0994Z" fill="#EF4424"/>
<path d="M95.1075 53.8067H91.9116C89.2457 53.8067 87.0845 51.6455 87.0845 48.9795V39.3047C87.0845 37.6979 85.8498 36.3105 84.2446 36.2398C82.5406 36.1646 81.1353 37.5239 81.1353 39.2113V54.3567C81.1353 56.7116 82.5488 58.7357 84.5735 59.6283C84.7971 59.7269 84.9428 59.9462 84.9428 60.1905V89.5095C84.9428 92.4269 87.2302 94.8932 90.1466 94.9732C93.1724 95.0562 95.6514 92.6281 95.6514 89.621V60.1905C95.6514 59.946 95.7971 59.7269 96.0207 59.6283C98.0454 58.7357 99.4588 56.7116 99.4588 54.3567V51.0721C98.6791 52.69 97.0236 53.8067 95.1075 53.8067Z" fill="#FFDFCF"/>
<path d="M90.4085 87.9722V58.6532C90.4085 58.4087 90.2628 58.1896 90.0392 58.0911C88.0145 57.1984 86.6011 55.1743 86.6011 52.8194V37.674C86.6011 37.6619 86.6027 37.6503 86.6029 37.638C86.0994 36.8381 85.244 36.2834 84.2446 36.2393C82.5406 36.1641 81.1353 37.5234 81.1353 39.2108V54.3562C81.1353 56.7109 82.5488 58.7352 84.5735 59.6278C84.7971 59.7264 84.9428 59.9457 84.9428 60.19V89.509C84.9428 92.4264 87.2302 94.8928 90.1466 94.9727C91.778 95.0174 93.2496 94.3312 94.2603 93.2189C92.019 92.5496 90.4085 90.4201 90.4085 87.9722Z" fill="#FFCEBF"/>
<path d="M95.1075 53.8066H91.9116C89.2457 53.8066 87.0845 51.6454 87.0845 48.9794V42.6221H97.0212C98.6303 42.6221 99.9347 43.9265 99.9347 45.5356V48.9792C99.9347 51.6454 97.7735 53.8066 95.1075 53.8066Z" fill="#FFCEBF"/>
<path d="M98.458 50.4338H95.2621C92.5961 50.4338 90.4349 48.2726 90.4349 45.6067V42.6221H87.0845V48.9794C87.0845 51.6454 89.2457 53.8066 91.9116 53.8066H95.1075C97.3323 53.8066 99.2043 52.3012 99.7636 50.2537C99.348 50.3703 98.9104 50.4338 98.458 50.4338Z" fill="#FFB09E"/>
<path d="M55.3339 101.417H9.77904C8.0486 101.417 6.56757 100.176 6.26468 98.4726L1.57402 72.0878C1.31478 70.6297 2.43616 69.2915 3.91699 69.2915H46.6315C48.362 69.2915 49.843 70.5326 50.1459 72.2362L55.3339 101.417Z" fill="#E1D3CE"/>
<path d="M14.9742 98.4726L10.2836 72.0878C10.0243 70.6297 11.1455 69.2915 12.6266 69.2915H3.91699C2.43616 69.2915 1.31478 70.6297 1.57402 72.0878L6.26468 98.4726C6.56757 100.176 8.04881 101.417 9.77904 101.417H18.4886C16.7584 101.417 15.2771 100.176 14.9742 98.4726Z" fill="#CDBFBA"/>
<path d="M32.8459 88.8051H21.4075C19.5018 88.8051 17.9568 87.2603 17.9568 85.3544C17.9568 83.4488 19.5016 81.9038 21.4075 81.9038H32.8459C34.7515 81.9038 36.2965 83.4486 36.2965 85.3544C36.2963 87.2601 34.7515 88.8051 32.8459 88.8051Z" fill="white"/>
<path d="M23.157 85.3544C23.157 83.4488 24.7017 81.9038 26.6076 81.9038H21.4077C19.502 81.9038 17.9571 83.4486 17.9571 85.3544C17.9571 87.2601 19.5018 88.8051 21.4077 88.8051H26.6076C24.7017 88.8051 23.157 87.2601 23.157 85.3544Z" fill="#F9F3F1"/>
<path d="M13.9729 28.4316C12.8462 28.7277 12.0115 29.752 12.0115 30.9703V35.9938C12.0115 37.4426 13.1903 38.6214 14.6391 38.6214H15.4822V39.8569C15.4822 43.3071 18.2891 46.1143 21.7396 46.1143C25.19 46.1143 27.9969 43.3073 27.9969 39.8569V38.6214H28.84C30.2889 38.6214 31.4676 37.4426 31.4676 35.9938V30.9703C31.4676 29.752 30.6329 28.7277 29.5062 28.4316L32.8025 22.7222C34.417 19.9259 34.9197 16.6741 34.2178 13.5655C34.0309 12.7374 33.2085 12.2183 32.3802 12.4046C31.5521 12.5915 31.0323 13.4143 31.2192 14.2422C31.758 16.6286 31.3848 19.0294 30.1403 21.185L26.0079 28.3427H23.2763V21.9166C25.7861 21.2385 27.6387 18.9429 27.6387 16.2216C27.6387 12.9688 24.9922 10.3223 21.7394 10.3223C18.4865 10.3223 15.8402 12.969 15.8402 16.2218C15.8402 18.9431 17.6928 21.2387 20.2026 21.9169V28.3429H17.4711L13.3386 21.1852C11.5852 18.1482 11.5852 14.5219 13.3386 11.4848C15.0922 8.44778 18.2326 6.63475 21.7396 6.63475C24.0936 6.63475 26.2644 7.42743 28.0174 8.92731C28.6623 9.47899 29.6327 9.40357 30.1846 8.75845C30.7362 8.11353 30.6608 7.14319 30.0157 6.59131C27.6981 4.60881 24.8363 3.56079 21.7396 3.56079C17.1214 3.56079 12.9857 5.94844 10.6766 9.94787C8.36741 13.9473 8.36741 18.7228 10.6766 22.7222L13.9729 28.4316ZM24.923 39.8569C24.923 41.6121 23.495 43.0403 21.7396 43.0403C19.9841 43.0403 18.5562 41.6123 18.5562 39.8569V38.6214H24.9227V39.8569H24.923ZM18.9142 16.2218C18.9142 14.6639 20.1817 13.3964 21.7396 13.3964C23.2974 13.3964 24.5649 14.6639 24.5649 16.2218C24.5649 17.7797 23.2974 19.0472 21.7396 19.0472C20.1817 19.0472 18.9142 17.7797 18.9142 16.2218ZM15.0857 31.4168H28.3935V35.5476H15.0857V31.4168Z" fill="black"/>
<path d="M53.2264 37.1903C53.2264 36.3415 52.5382 35.6533 51.6894 35.6533C50.8406 35.6533 50.1524 36.3415 50.1524 37.1903V40.1507C50.1524 40.9996 50.8406 41.6877 51.6894 41.6877C52.5382 41.6877 53.2264 40.9996 53.2264 40.1507V37.1903Z" fill="black"/>
<path d="M66.7381 35.6533C65.8892 35.6533 65.2011 36.3415 65.2011 37.1903V40.1507C65.2011 40.9996 65.8892 41.6877 66.7381 41.6877C67.5869 41.6877 68.275 40.9996 68.275 40.1507V37.1903C68.275 36.3415 67.5869 35.6533 66.7381 35.6533Z" fill="black"/>
<path d="M63.1458 47.2051C61.0662 49.2847 57.6824 49.2847 55.6025 47.2051C55.0023 46.6048 54.0291 46.6048 53.429 47.2051C52.8288 47.8053 52.8288 48.7785 53.429 49.3786C55.0681 51.0178 57.2211 51.8373 59.3743 51.8373C61.5275 51.8373 63.6805 51.0178 65.3195 49.3786C65.9198 48.7783 65.9198 47.8051 65.3195 47.2051C64.7193 46.605 63.7461 46.605 63.1458 47.2051Z" fill="black"/>
<path d="M58.1453 45.7216C58.2957 45.7679 58.4478 45.7898 58.5974 45.7898C59.2546 45.7898 59.8629 45.365 60.0661 44.7039C60.3155 43.8926 59.86 43.0325 59.0485 42.7833C58.8583 42.7249 58.6538 42.5323 58.6538 42.2476C58.6538 41.9388 58.905 41.6877 59.2136 41.6877C60.0625 41.6877 60.7506 40.9996 60.7506 40.1508C60.7506 39.3019 60.0625 38.6138 59.2136 38.6138C57.2098 38.6138 55.5798 40.244 55.5798 42.2476C55.5798 43.8541 56.6108 45.2502 58.1453 45.7216Z" fill="black"/>
<path d="M103.387 99.8806H98.5743C101.291 97.5462 103.016 94.0894 103.016 90.2353V74.289C103.016 72.7854 101.793 71.5622 100.289 71.5622H97.1883V70.3984C97.1883 69.5496 96.5002 68.8614 95.6513 68.8614C94.8025 68.8614 94.1144 69.5496 94.1144 70.3984V89.6205C94.1144 90.6599 93.7041 91.6317 92.9588 92.3567C92.214 93.0816 91.2304 93.4658 90.1887 93.4363C88.1437 93.3801 86.4797 91.6184 86.4797 89.509V60.19C86.4797 59.3385 85.9747 58.5659 85.1933 58.2214C83.6617 57.5462 82.6721 56.0288 82.6721 54.3562V39.2108C82.6721 38.8147 82.8298 38.4458 83.1161 38.1718C83.4022 37.8982 83.7807 37.7564 84.1767 37.7746C84.9324 37.808 85.5474 38.4941 85.5474 39.304V48.9788C85.5474 52.4881 88.4025 55.3429 91.9118 55.3429H95.1077C96.0936 55.3429 97.05 55.1099 97.9089 54.687C97.7882 56.2266 96.8305 57.5908 95.4009 58.2212C94.6193 58.5657 94.1144 59.3385 94.1144 60.1898V63.2258C94.1144 64.0746 94.8025 64.7628 95.6513 64.7628C96.5002 64.7628 97.1883 64.0746 97.1883 63.2258V60.765C99.5198 59.4953 100.996 57.0418 100.996 54.3562V51.3835C101.3 50.641 101.472 49.8301 101.472 48.979V45.5354C101.472 43.0813 99.4753 41.0849 97.0213 41.0849H88.6216V39.3042C88.6216 36.8311 86.7289 34.8105 84.3123 34.7037C83.8469 34.6839 83.3903 34.7335 82.9542 34.848V33.9219C82.9542 20.9676 72.4151 10.4285 59.4608 10.4285C46.5065 10.4285 35.9673 20.9676 35.9673 33.9219V38.0622C34.74 39.4618 33.9936 41.2931 33.9936 43.2965C33.9936 45.2999 34.74 47.1312 35.9673 48.531V54.2115C35.9673 57.0457 37.02 59.6369 38.7521 61.6208C35.9386 62.7633 33.7106 64.986 32.5452 67.7548H29.7151C28.8662 67.7548 28.1781 68.4429 28.1781 69.2918C28.1781 70.1406 28.8662 70.8287 29.7151 70.8287H46.6321C47.6188 70.8287 48.4605 71.5339 48.6333 72.5055L53.4999 99.8806H9.77899C8.79225 99.8806 7.95059 99.1754 7.77784 98.2038L3.08718 71.819C3.02734 71.4821 3.17653 71.2429 3.27079 71.1304C3.36506 71.0179 3.5745 70.829 3.91674 70.829H22.5419C23.3907 70.829 24.0789 70.1408 24.0789 69.292C24.0789 68.4431 23.3907 67.755 22.5419 67.755H3.91694C2.75519 67.755 1.66086 68.2657 0.91491 69.1563C0.168757 70.0467 -0.142533 71.2136 0.0609637 72.3573L4.75163 98.7422C5.16415 101.063 7.09665 102.775 9.41646 102.939C9.48594 102.948 9.55602 102.955 9.62816 102.955H103.387C104.236 102.955 104.924 102.267 104.924 101.418C104.924 100.569 104.236 99.8806 103.387 99.8806ZM88.6212 44.1586H97.0209C97.78 44.1586 98.3974 44.7761 98.3974 45.5352V48.9788C98.3974 50.7925 96.9225 52.268 95.1091 52.269H91.9114C90.0971 52.269 88.621 50.7931 88.621 48.9788V44.1586H88.6212ZM81.6644 59.4377C82.1696 59.9582 82.7524 60.4092 83.4055 60.765V63.6379C82.4479 62.7928 81.3529 62.1112 80.1647 61.6259C80.7459 60.9603 81.2504 60.2262 81.6644 59.4377ZM39.0411 33.9219C39.0411 22.6626 48.2013 13.5024 59.4606 13.5024C70.7199 13.5024 79.8801 22.6626 79.8801 33.9219V35.8964C79.2073 35.6321 78.4988 35.4601 77.7734 35.3872V34.1906C77.7734 30.193 74.9406 26.6803 71.0375 25.8384C70.053 25.6261 68.9976 25.655 67.9861 25.9218L44.1299 32.2194C42.6077 32.621 41.4849 33.8715 41.2127 35.3806C40.4528 35.4503 39.7243 35.628 39.0411 35.8971V33.9219ZM59.4604 57.4259C51.0578 57.4259 44.2217 50.5898 44.2217 42.1872V36.0905C44.2217 35.6688 44.5066 35.2991 44.9144 35.1913L68.7706 28.8938C69.3159 28.7501 69.8758 28.7323 70.3893 28.8431C72.8868 29.3819 74.6992 31.6308 74.6992 34.1904V42.1872C74.6992 50.5898 67.8631 57.4259 59.4604 57.4259ZM63.1042 60.1353V62.6635C63.1042 64.6726 61.4697 66.3072 59.4606 66.3072C57.4514 66.3072 55.8169 64.6726 55.8169 62.6635V60.1353C56.9948 60.374 58.2134 60.4998 59.4606 60.4998C60.7078 60.4998 61.9263 60.374 63.1042 60.1353ZM52.7427 59.2237V62.42H47.2491C42.7233 62.42 39.0408 58.7378 39.0408 54.2117V50.6963C39.9411 51.0509 40.9199 51.2478 41.9445 51.2478H43.5534C45.6111 54.8456 48.8511 57.6837 52.7427 59.2237ZM66.1782 59.2237C70.0704 57.6837 73.3127 54.8462 75.37 51.2478H76.9762C77.8761 51.2478 78.7609 51.0892 79.5981 50.7947V54.356C79.5981 54.8282 79.6462 55.2925 79.734 55.7452C79.0134 59.5405 75.6732 62.42 71.6714 62.42H66.1782V59.2237ZM76.7672 48.1738C77.4182 46.2969 77.7732 44.2828 77.7732 42.1872V38.4876C78.4222 38.5952 79.0433 38.8306 79.5983 39.1852V39.2108V47.408C78.8189 47.9054 77.9088 48.1741 76.9764 48.1741H76.7672V48.1738ZM37.0674 43.2965C37.0674 40.8785 38.8363 38.8671 41.1477 38.4855V42.1872C41.1477 44.2832 41.5043 46.2969 42.1556 48.1738H41.9447C39.2554 48.1738 37.0674 45.986 37.0674 43.2965ZM65.9333 99.8806H56.6217L55.8144 95.3395H65.0906C65.5554 95.3395 65.9333 95.7176 65.9333 96.1822V99.8806ZM69.0073 99.8806V96.1822C69.0073 94.0224 67.2502 92.2655 65.0906 92.2655H55.2679L51.6593 71.9673C51.2252 69.5264 49.1107 67.7548 46.6315 67.7548H35.9966C37.219 65.8055 39.2308 64.3947 41.617 63.9814C43.2757 64.9415 45.1986 65.494 47.2491 65.494H53.3702C54.4404 67.7874 56.7672 69.3811 59.4604 69.3811C62.1536 69.3811 64.4803 67.7874 65.5505 65.494H71.6714C73.7235 65.494 75.6485 64.9423 77.3074 63.9806C79.9643 64.4452 82.2497 66.1858 83.4055 68.6403V71.5624H80.3045C78.8009 71.5624 77.5777 72.7856 77.5777 74.2892V90.2355C77.5777 94.0896 79.3032 97.5462 82.0195 99.8808H69.0073V99.8806ZM90.2969 99.8806C84.9785 99.8806 80.6518 95.5536 80.6518 90.2353V74.6364H83.4057V89.5092C83.4057 93.2679 86.4108 96.408 90.1045 96.5092C90.1697 96.5111 90.2348 96.5119 90.2998 96.5119C92.1054 96.5119 93.8043 95.8231 95.1025 94.5601C96.4477 93.2515 97.1885 91.4973 97.1885 89.6207V74.6364H99.9424V90.2355C99.9422 95.5536 95.6153 99.8806 90.2969 99.8806Z" fill="black"/>
<path d="M16.4198 85.3548C16.4198 88.105 18.6572 90.3424 21.4074 90.3424H32.8456C35.5958 90.3424 37.8332 88.105 37.8332 85.3548C37.8332 82.6047 35.5958 80.3674 32.8456 80.3674H21.4074C18.6572 80.3674 16.4198 82.6047 16.4198 85.3548ZM34.7592 85.3548C34.7592 86.41 33.9008 87.2685 32.8456 87.2685H21.4074C20.3522 87.2685 19.4937 86.41 19.4937 85.3548C19.4937 84.2998 20.3522 83.4414 21.4074 83.4414H32.8456C33.901 83.4414 34.7592 84.2996 34.7592 85.3548Z" fill="black"/>
<path d="M65.2953 7.94974C66.1442 7.94974 66.8323 7.26158 66.8323 6.41276V2.49181C66.8323 1.64299 66.1442 0.954834 65.2953 0.954834C64.4465 0.954834 63.7584 1.64299 63.7584 2.49181V6.41276C63.7584 7.26158 64.4465 7.94974 65.2953 7.94974Z" fill="black"/>
<path d="M86.351 29.0052C86.351 29.8541 87.0391 30.5422 87.8879 30.5422H91.8089C92.6577 30.5422 93.3459 29.8541 93.3459 29.0052C93.3459 28.1564 92.6577 27.4683 91.8089 27.4683H87.8879C87.0391 27.4683 86.351 28.1564 86.351 29.0052Z" fill="black"/>
<path d="M84.8625 19.2463C85.1232 19.2463 85.3876 19.1797 85.6296 19.0401L89.0253 17.0796C89.7604 16.6551 90.0122 15.7151 89.5878 14.98C89.1634 14.245 88.223 13.9933 87.4883 14.4175L84.0926 16.3781C83.3575 16.8025 83.1057 17.7425 83.5301 18.4776C83.8147 18.9707 84.3314 19.2463 84.8625 19.2463Z" fill="black"/>
<path d="M75.8233 10.7706C76.0653 10.9104 76.3297 10.9768 76.5903 10.9768C77.1215 10.9768 77.6381 10.7009 77.9228 10.2081L79.8832 6.81237C80.3076 6.07728 80.0557 5.13726 79.3206 4.71285C78.5855 4.28823 77.6453 4.5403 77.2211 5.27539L75.2607 8.67109C74.8361 9.40618 75.0882 10.3462 75.8233 10.7706Z" fill="black"/>
</svg>
